<svg width="22" height="22" viewBox="0 0 22 22" fill="none" xmlns="http://www.w3.org/2000/svg">
<g clip-path="url(#clip0_71_686)">
<path d="M0.887207 1.08057H4.43551L6.81288 12.9585C6.89399 13.3669 7.11617 13.7338 7.44052 13.9949C7.76487 14.256 8.17072 14.3947 8.58703 14.3867H17.2094C17.6257 14.3947 18.0316 14.256 18.3559 13.9949C18.6803 13.7338 18.9024 13.3669 18.9836 12.9585L20.4029 5.51595H5.32259M8.87089 18.8221C8.87089 19.312 8.47373 19.7092 7.98382 19.7092C7.4939 19.7092 7.09674 19.312 7.09674 18.8221C7.09674 18.3322 7.4939 17.935 7.98382 17.935C8.47373 17.935 8.87089 18.3322 8.87089 18.8221ZM18.6287 18.8221C18.6287 19.312 18.2316 19.7092 17.7417 19.7092C17.2517 19.7092 16.8546 19.312 16.8546 18.8221C16.8546 18.3322 17.2517 17.935 17.7417 17.935C18.2316 17.935 18.6287 18.3322 18.6287 18.8221Z" stroke="#1E1E1E" stroke-width="2.12898" stroke-linecap="round" stroke-linejoin="round"/>
</g>
<defs>
<clipPath id="clip0_71_686">
<rect width="21.2898" height="21.2898" fill="white" transform="translate(0 0.193481)"/>
</clipPath>
</defs>
</svg>
