<svg width="35" height="39" viewBox="0 0 35 39" fill="none" xmlns="http://www.w3.org/2000/svg">
<g clip-path="url(#clip0_167_28)">
<path d="M31.3199 5.36885C30.7251 4.77374 30.0188 4.30165 29.2415 3.97957C28.4642 3.65748 27.631 3.4917 26.7896 3.4917C25.9482 3.4917 25.115 3.65748 24.3376 3.97957C23.5603 4.30165 22.8541 4.77374 22.2592 5.36885L21.0247 6.60334L19.7902 5.36885C18.5887 4.16733 16.9591 3.49232 15.2599 3.49232C13.5607 3.49232 11.9311 4.16733 10.7296 5.36885C9.52804 6.57037 8.85303 8.19999 8.85303 9.8992C8.85303 11.5984 9.52804 13.228 10.7296 14.4295L21.0247 24.7247L31.3199 14.4295C31.915 13.8347 32.3871 13.1285 32.7092 12.3511C33.0313 11.5738 33.1971 10.7406 33.1971 9.8992C33.1971 9.05778 33.0313 8.2246 32.7092 7.44727C32.3871 6.66994 31.915 5.96369 31.3199 5.36885Z" stroke="black" stroke-width="2.32923" stroke-linecap="round" stroke-linejoin="round"/>
</g>
<path d="M9.51546 12.7422C6.63818 13.7013 1.13025 17.017 2.11674 22.6071C3.10324 28.1973 4.44601 34.8013 4.99409 37.4046H13.6259L14.448 30.4169C17.0513 29.8688 21.6001 27.704 18.9694 23.4292" stroke="black" stroke-width="2.0552" stroke-linecap="round" stroke-linejoin="round"/>
<path d="M7.04932 18.0232L12.8039 12.2686C13.9 11.1725 16.421 9.55574 17.7364 11.8576C19.0517 14.1594 17.7364 15.8309 16.9143 16.379L11.1597 23.3667" stroke="black" stroke-width="2.0552" stroke-linecap="round" stroke-linejoin="round"/>
<path d="M11.1595 23.8403C12.5296 25.6214 14.2834 29.4304 10.3374 30.4169" stroke="black" stroke-width="2.0552" stroke-linecap="round" stroke-linejoin="round"/>
<path d="M12.5 14L10.5 16L12.5 20L15 17L12.5 14Z" fill="white"/>
<defs>
<clipPath id="clip0_167_28">
<rect width="27.9507" height="27.9507" fill="white" transform="translate(7.04932)"/>
</clipPath>
</defs>
</svg>
