<?xml version="1.0" encoding="UTF-8" standalone="no"?>
<!-- Created with Inkscape (http://www.inkscape.org/) -->

<svg
   width="65.303574mm"
   height="69.549553mm"
   viewBox="0 0 65.303574 69.549553"
   version="1.1"
   id="svg1"
   xml:space="preserve"
   xmlns="http://www.w3.org/2000/svg"
   xmlns:svg="http://www.w3.org/2000/svg"><defs
     id="defs1" /><g
     id="layer1"
     transform="translate(-679.51907,-202.55613)"><path
       style="fill:#000000;stroke-width:0.764141"
       d="m 732.84372,271.8546 -1.16253,-0.19918 v -0.28032 -0.28032 h -2.42615 -2.42614 v -0.50545 -0.50545 h -3.03269 -3.03268 v -0.50545 -0.50544 h -2.52724 -2.52723 v -0.50545 -0.50544 h -2.52724 -2.52724 v -0.50545 -0.50545 h -2.52723 -2.52724 v -0.50545 -0.50545 h -3.03268 -3.03269 v -0.50545 -0.50544 h -2.42614 -2.42615 v -0.50545 -0.50544 h -2.52724 -2.52723 v -0.50545 -0.50545 h -2.52724 -2.52724 v -0.50545 -0.50544 h -2.52723 -2.52724 v -2.52724 -2.52724 h 0.50545 0.50545 v -2.52723 -2.52724 h 0.50544 0.50545 v -2.52723 -2.52724 h 0.50545 0.50544 v -2.52724 -2.52724 h 0.50545 0.50545 v -2.93159 -2.9316 h 0.50544 0.50545 v -2.52723 -2.52724 h 0.50545 0.50545 v -2.52723 -2.52724 h 0.50545 0.50544 v -2.52723 -2.52725 h 0.50545 0.50544 v -2.52723 -2.52724 h 0.50545 0.50545 v -3.03268 -3.03268 h 0.50545 0.50545 v -2.52724 -2.52724 h 0.50544 0.50545 v -0.76828 -0.76827 l 0.24261,-0.24262 0.24262,-0.24261 h 0.49224 0.49225 l 1.28693,0.23712 1.28693,0.23713 v 0.26832 0.26832 h 2.42615 2.42614 v 0.50545 0.50544 h 3.03269 3.03268 v 0.50545 0.50545 h 2.52724 2.52723 v 0.50544 0.50545 h 2.52724 2.52724 v 0.50545 0.50545 h 2.52723 2.52724 v 0.50545 0.50545 h 3.03268 3.03269 v 0.50544 0.50545 h 2.42614 2.42615 v 0.50544 0.50545 h 1.51635 1.51633 v 0.50545 0.50545 h 0.50545 0.50545 v 0.50544 0.50545 h 0.50545 0.50544 v 1.0109 1.01089 h 0.50545 0.50545 v 0.50544 0.50545 h 0.50545 0.50544 v 0.50545 0.50545 h 0.50545 0.50544 v 0.50545 0.50544 h 0.50545 0.50545 v 0.50545 0.50545 h 0.50545 0.50545 v 0.50544 0.50545 h 0.50545 0.50544 v 1.01089 1.0109 h 0.50545 0.50545 l 0.003,0.55599 0.003,0.556 0.1732,-0.27332 0.17319,-0.27331 0.32916,0.46993 0.32916,0.46994 v 0.69574 0.69574 l -0.34234,1.78578 -0.34233,1.78579 -0.16002,-0.252 -0.16002,-0.252 -0.003,2.57778 -0.003,2.57778 h -0.50545 -0.50545 v 2.42614 2.42615 h -0.50544 -0.50545 v 2.52724 2.52724 h -0.50545 -0.50545 v 2.52723 2.52724 h -0.50545 -0.50545 v 3.03268 3.03269 h -0.50544 -0.50545 v 2.52723 2.52725 h -0.50544 -0.50545 v 2.52723 2.52724 h -0.50545 -0.50545 v 2.52723 2.52724 h -0.50544 -0.50545 v 1.30705 1.30705 l -0.39107,0.20929 -0.39107,0.20929 -0.46818,-0.026 -0.4682,-0.026 z m 0.85926,-4.8034 v -2.02179 h 0.50545 0.50544 v -2.52724 -2.52723 h 0.50545 0.50545 v -2.52724 -2.52724 h 0.50545 0.50544 v -2.52723 -2.52724 h 0.50545 0.50545 v -3.03268 -3.03268 h 0.50545 0.50544 v -2.52725 -2.52723 h 0.50545 0.50544 V 236.32 233.89385 h 0.50545 0.50545 v -2.52723 -2.52724 h 0.50545 0.50545 v -3.03268 -3.03268 h -0.50545 -0.50545 v -0.50545 -0.50545 h -0.50545 -0.50545 v -0.50545 -0.50545 h -0.50544 -0.50545 v -0.50544 -0.50545 h -0.50544 -0.50545 v -0.50545 -0.50544 h -0.50545 -0.50545 v -0.50545 -0.50545 h -0.50544 -0.50545 v -1.01089 -1.0109 h -0.50545 -0.50545 v -0.50545 -0.50544 h -0.50544 -0.50545 v -0.50545 -0.50544 h -0.50544 -0.50545 v -0.50545 -0.50545 h -0.50545 -0.50545 v 2.02179 2.02179 h -0.50545 -0.50545 v 2.52723 2.52724 h -0.50544 -0.50545 v 2.52724 2.52723 h -0.50544 -0.50545 v 1.51635 1.51633 h -1.9207 -1.9207 v -0.50544 -0.50545 h -2.52724 -2.52724 v -0.50544 -0.50545 h -2.52723 -2.52724 v -0.50545 -0.50545 h -2.52723 -2.52724 v -0.50544 -0.50545 h -3.03268 -3.03269 v -0.50545 -0.50545 h -2.52724 -2.52723 v -0.50544 -0.50545 h -2.42615 -2.42615 v -3.53813 -3.53813 h 0.50545 0.50545 v -2.52724 -2.52723 h 0.50545 0.50545 v -3.03268 -3.03269 h -1.51635 -1.51634 v 1.51634 1.51635 h -0.50545 -0.50545 v 3.03268 3.03268 h -0.50544 -0.50545 v 2.52724 2.52723 h -0.50545 -0.50544 v 2.52724 2.52723 h -0.50545 -0.50545 v 2.52724 2.52723 h -0.50545 -0.50545 v 2.52725 2.52723 h -0.50544 -0.50545 v 2.42615 2.42615 h -0.50544 -0.50545 v 3.03268 3.03268 h -0.50545 -0.50545 v 2.52724 2.52723 h -0.50545 -0.50544 v 2.52724 2.52724 h -0.50545 -0.50545 v 1.51634 1.51635 h 0.50545 0.50545 v 0.50544 0.50545 h 2.52724 2.52723 v 0.50544 0.50545 h 2.52724 2.52723 v 0.50545 0.50545 h 2.42615 2.42615 v 0.50544 0.50545 h 2.52723 2.52724 v 0.50545 0.50545 h 2.52724 2.52723 v 0.50544 0.50545 h 2.52724 2.52723 v 0.50544 0.50545 h 3.03269 3.03268 v 0.50545 0.50545 h 2.52724 2.52724 v 0.50545 0.50545 h 2.42615 2.42614 v 0.50544 0.50545 h 2.02179 2.02179 z m -5.86319,-2.52724 v -0.50544 h -2.52723 -2.52724 v -0.50545 -0.50545 h -2.52724 -2.52723 v -0.50545 -0.50544 h -3.03269 -3.03268 v -0.50545 -0.50545 h -2.52724 -2.52723 v -0.50545 -0.50544 h -2.52725 -2.52723 v -0.50545 -0.50544 h -2.52724 -2.52723 v -0.50545 -0.50545 h -2.9316 -2.93159 v -0.50545 -0.50545 h -1.51634 -1.51635 v -0.50545 -0.50544 h -0.50544 -0.50545 v -1.0109 -1.01089 h 0.50545 0.50544 v -3.03269 -3.03268 h 0.50545 0.50545 v -2.52724 -2.52723 h 0.50545 0.50545 v -2.52724 -2.52724 h 0.50544 0.50545 v -2.42615 -2.42614 h 0.50545 0.50544 v -0.50544 -0.50545 h 2.9316 2.9316 v 0.50545 0.50544 h 2.52723 2.52724 v 0.50545 0.50544 h 2.52723 2.52724 v 0.50545 0.50545 h 2.52724 2.52723 v 0.50545 0.50544 h 3.03269 3.03268 v 0.50545 0.50545 h 2.52724 2.52723 v 0.40436 0.40435 h 2.42615 2.42615 v 0.50545 0.50545 h 2.52723 2.52724 v 0.50545 0.50545 h 1.01089 1.0109 v 2.52723 2.52724 h -0.50545 -0.50545 v 2.52723 2.52724 h -0.50544 -0.50545 v 2.52724 2.52723 h -0.50544 -0.50545 v 2.52724 2.52724 h -0.50545 -0.50545 v 2.02179 2.02179 h -0.50545 -0.50545 v 0.50544 0.50545 h -1.41525 -1.41525 z m 0.80872,-3.03268 v -0.50545 h 0.50545 0.50544 v -2.52723 -2.52724 h 0.50545 0.50544 v -2.52724 -2.52724 h 0.50545 0.50545 v -2.52723 -2.52724 h 0.50545 0.50545 v -2.02178 -2.0218 h -1.51635 -1.51634 v -0.50545 -0.50544 h -2.42614 -2.42615 v -0.50545 -0.50544 h -2.52724 -2.52724 v -0.50545 -0.50545 h -2.52723 -2.52724 v 0.50545 0.50545 h 1.51635 1.51634 v 0.50544 0.50545 h 1.01089 1.01089 v 0.50544 0.50545 h 1.0109 1.0109 v 0.50545 0.50545 h 0.50544 0.50545 v 0.50545 0.50545 h -0.50545 -0.50544 v 1.01089 1.01089 h 0.50544 0.50545 v 1.0109 1.01089 h 0.50544 0.50545 v 0.50545 0.50545 h -0.50545 -0.50544 v 1.01089 1.01089 h 1.01089 1.0109 v -0.50544 -0.50545 h -0.50545 -0.50545 v -0.50544 -0.50545 h 0.50545 0.50545 v -1.0109 -1.01089 h 0.50545 0.50544 v 1.51634 1.51634 h 0.50545 0.50545 v 0.50545 0.50544 h -0.50545 -0.50545 v 1.0109 1.0109 h -0.50544 -0.50545 v 0.50544 0.50545 h -0.50545 -0.50545 v 0.50545 0.50544 h -1.01089 -1.01089 v -0.50544 -0.50545 h 0.50544 0.50545 v -0.50545 -0.50544 h 0.50544 0.50545 v -0.50545 -0.50545 h -1.01089 -1.01089 v 0.50545 0.50545 h -0.50545 -0.50545 v -0.50545 -0.50545 h -1.51634 -1.51634 v 1.0109 1.01089 h -0.50545 -0.50545 v -1.01089 -1.0109 h -0.50544 -0.50545 v -0.50545 -0.50545 h -2.52724 -2.52724 v -0.50544 -0.50545 h 3.03268 3.03269 v 0.50545 0.50544 h 0.50545 0.50545 v -0.50544 -0.50545 h 0.50544 0.50545 v 0.50545 0.50544 h 1.51634 1.51635 v -1.01089 -1.01089 h -0.50545 -0.50545 v -0.50545 -0.50545 h 0.50545 0.50545 v -0.50545 -0.50544 h -0.50545 -0.50545 v -1.51635 -1.51633 h -0.50545 -0.50545 v -0.50545 -0.50545 h -0.50544 -0.50545 v 1.0109 1.01089 h -0.50545 -0.50544 v -1.01089 -1.0109 h -0.50545 -0.50545 v -0.50545 -0.50545 h -0.50544 -0.50545 v -0.50545 -0.50544 h -1.0109 -1.0109 v -0.50545 -0.50544 h -1.51633 -1.51635 v 0.50544 0.50545 h -1.01089 -1.0109 v 0.50544 0.50545 h -0.50544 -0.50545 v -0.50545 -0.50544 h -0.50545 -0.50544 v 0.50544 0.50545 h -1.0109 -1.0109 v -0.50545 -0.50544 h -1.01089 -1.01089 v -0.50545 -0.50544 h 1.51633 1.51635 v -0.50545 -0.50545 h 4.04358 4.04357 v -0.50545 -0.50545 h -2.52723 -2.52724 v -0.40435 -0.40436 h -2.52723 -2.52724 v -0.50545 -0.50545 h -2.52724 -2.52723 v -0.50544 -0.50545 h -2.42615 -2.42615 v 1.01089 1.0109 h -0.50545 -0.50544 v 2.42615 2.42614 h -0.50545 -0.50545 v 2.52724 2.52724 h -0.50544 -0.50545 v 3.03268 3.03269 h -0.50545 -0.50544 v 1.01089 1.01089 h 3.03268 3.03269 v 0.50545 0.50545 h 2.42614 2.42615 v 0.50544 0.50545 h 2.52723 2.52724 v 0.50545 0.50545 h 2.52724 2.52723 v 0.50545 0.50545 h 2.52724 2.52724 v 0.50544 0.50545 h 3.03268 3.03269 v 0.50544 0.50545 h 2.52723 2.52724 v 0.50545 0.50545 h 0.90981 0.9098 z m -20.01572,-5.05448 v -0.50544 h -1.51634 -1.51634 v -0.50545 -0.50545 h -1.0109 -1.01089 v -0.50544 -0.50545 h -0.50545 -0.50544 v -0.50545 -0.50544 h -0.50545 -0.50545 v -0.50545 -0.50545 h -0.50545 -0.50544 v -0.50545 -0.50545 h -0.50545 -0.50545 v -0.50544 -0.50545 h -0.50545 -0.50544 v -2.02179 -2.02179 h -0.50545 -0.50544 v -0.50545 -0.50544 h 0.50544 0.50545 v -1.01089 -1.0109 h 0.50544 0.50545 v -0.50545 -0.50545 h 0.50545 0.50545 v -0.50545 -0.50544 h 1.01089 1.0109 v 0.50544 0.50545 h -0.50545 -0.50545 v 0.50545 0.50545 h -0.50545 -0.50544 v 0.50545 0.50545 h 1.01089 1.0109 v -0.50545 -0.50545 h 0.50544 0.50545 v -0.50545 -0.50545 h 0.50544 0.50545 v 0.50545 0.50545 h -0.50545 -0.50544 v 0.50545 0.50545 h 1.01089 1.0109 v -0.50545 -0.50545 h 0.50545 0.50545 v -0.50545 -0.50545 h 0.50544 0.50545 v 1.0109 1.0109 h -0.50545 -0.50544 v 0.50544 0.50545 h 3.03268 3.03268 v 0.50544 0.50545 h 2.02179 2.02179 v 0.50545 0.50545 h 1.0109 1.01089 v -1.0109 -1.01089 h 0.50545 0.50544 v 1.01089 1.0109 h 0.50545 0.50545 v 0.50544 0.50545 h -0.50545 -0.50545 v 1.0109 1.01089 h -0.50544 -0.50545 v -1.01089 -1.0109 h -1.01089 -1.0109 v -0.50545 -0.50544 h -2.02179 -2.02179 v -0.50545 -0.50545 h -3.53813 -3.53813 v 1.51634 1.51635 h 2.52724 2.52723 v 0.50545 0.50544 h -2.52723 -2.52724 v 1.01089 1.0109 h 0.50545 0.50545 v 1.0109 1.01089 h 0.50544 0.50545 v 0.50545 0.50544 h 0.50545 0.50544 v 0.50545 0.50545 h 2.52724 2.52723 v -0.50545 -0.50545 h 1.0109 1.0109 v -0.50544 -0.50545 h 0.50545 0.50544 v 0.50545 0.50544 h 1.0109 1.01089 v -0.50544 -0.50545 h 0.50545 0.50544 v -0.50545 -0.50544 h 0.50545 0.50545 v 0.50544 0.50545 h -0.50545 -0.50545 v 0.50545 0.50544 h 1.0109 1.0109 v 0.50545 0.50545 h -1.0109 -1.0109 v 0.50544 0.50545 h -5.55992 -5.55992 z m 8.08716,-1.01089 v -0.50545 h -0.50544 -0.50545 v 0.50545 0.50545 h 0.50545 0.50544 z m 3.03268,0 v -0.50545 h -0.50544 -0.50545 v 0.50545 0.50545 h 0.50545 0.50544 z m -16.17431,-3.03268 v -0.50545 h 0.50544 0.50545 v 0.50545 0.50545 h 0.50545 0.50545 v -0.50545 -0.50545 h -0.50545 -0.50545 v -1.51634 -1.51634 h -1.01089 -1.01089 v 0.50545 0.50544 h -0.50545 -0.50545 v -1.01089 -1.0109 h -1.01089 -1.0109 v 1.0109 1.01089 h 0.50545 0.50545 v 0.50545 0.50544 h 0.50544 0.50545 v 0.50545 0.50545 h 0.50545 0.50545 v 0.50545 0.50545 h 0.50544 0.50545 z m -1.01089,-1.51635 v -1.01089 h 0.50544 0.50545 v 1.01089 1.0109 h -0.50545 -0.50544 z m 2.02178,-4.04357 v -1.0109 h 0.50545 0.50545 v -0.50545 -0.50544 h -1.51635 -1.51633 v 1.51634 1.51634 h 1.01089 1.01089 z m -3.03268,-1.0109 v -1.01089 h -1.01089 -1.0109 v 0.50544 0.50545 h 0.50545 0.50545 v 0.50545 0.50545 h 0.50544 0.50545 z m 22.23968,0.50545 v -0.50545 h -0.50545 -0.50544 v -1.01089 -1.01089 h 0.50544 0.50545 v 0.50544 0.50545 h 0.50545 0.50545 v 1.01089 1.0109 h -0.50545 -0.50545 z m 3.03269,-21.53206 v -2.02178 h 0.50544 0.50545 v -2.52724 -2.52724 h 0.40436 0.40436 v -2.52724 -2.52723 h -0.40436 -0.40436 v -0.50545 -0.50544 h -2.52723 -2.52724 v -0.50545 -0.50545 h -2.52724 -2.52723 v -0.50545 -0.50544 h -2.52724 -2.52724 v -0.50545 -0.50544 h -2.52723 -2.52724 v -0.50545 -0.50545 h -3.03269 -3.03268 v -0.50545 -0.50545 h -1.51634 -1.51634 v 2.0218 2.02178 h -0.50545 -0.50544 v 2.52724 2.52723 h -0.50545 -0.50545 v 2.52724 2.52723 h 0.50545 0.50545 v 0.50545 0.50545 h 2.52723 2.52724 v 0.50545 0.50545 h 3.03268 3.03268 v 0.50545 0.50544 h 2.52724 2.52723 v 0.50545 0.50544 h 2.52725 2.52723 v 0.50545 0.50545 h 2.52724 2.52723 v 0.50545 0.50544 h 1.51635 1.51634 z m -7.07627,-0.50544 v -0.50545 h -1.01089 -1.01089 v -0.50544 -0.50545 h -0.50545 -0.50545 v -0.50545 -0.50545 h 0.50545 0.50545 v -2.52724 -2.52723 h 0.50544 0.50545 v -2.02179 -2.02179 h 0.50545 0.50544 v -0.50545 -0.50544 h 1.51635 1.51634 v 0.50544 0.50545 h 2.02179 2.02179 v 0.50545 0.50545 h 0.50544 0.50545 v 1.01089 1.01089 h -0.50545 -0.50544 v 3.03269 3.03268 h -0.50545 -0.50545 v 1.51635 1.51633 h -3.03268 -3.03269 z m 4.04358,-4.54903 v -2.02179 h 0.50545 0.50545 v -1.01089 -1.0109 h -0.50545 -0.50545 v -0.50545 -0.50544 h -1.01089 -1.01089 v 0.50544 0.50545 h -0.50545 -0.50545 v 2.52724 2.52723 h -0.50545 -0.50545 v 0.50545 0.50545 h 2.0218 2.02178 z"
       id="path111" /></g></svg>
