<svg width="40" height="32" viewBox="0 0 40 32" fill="none" xmlns="http://www.w3.org/2000/svg">
<path d="M39 14.4359L39.7308 14.4359V14.4359H39ZM13.0254 26.9008L13.2214 26.1968C13.0461 26.1479 12.8588 26.1663 12.6963 26.2483L13.0254 26.9008ZM4.89746 31.0004L4.20771 30.759C4.10927 31.0403 4.1915 31.3532 4.41552 31.5497C4.63954 31.7462 4.96047 31.787 5.22656 31.6528L4.89746 31.0004ZM6.60254 26.1283L7.29229 26.3697C7.31073 26.317 7.32307 26.2624 7.32907 26.2069L6.60254 26.1283ZM6.82324 24.0873L7.54978 24.1658C7.57882 23.8972 7.45727 23.6345 7.23373 23.4827L6.82324 24.0873ZM1 14.4359L0.269231 14.4359L0.269231 14.4359L1 14.4359ZM20 1.03845V1.76922C25.114 1.76922 29.7128 3.23202 33.0139 5.55971C36.317 7.88879 38.2692 11.0378 38.2692 14.4359H39H39.7308C39.7308 10.4348 37.4297 6.88511 33.8562 4.36526C30.2806 1.84402 25.3794 0.307683 20 0.307683V1.03845ZM39 14.4359L38.2692 14.4359C38.2692 17.834 36.3169 20.983 33.0139 23.3121C29.7128 25.6398 25.114 27.1026 20 27.1026V27.8334V28.5641C25.3794 28.5641 30.2806 27.0278 33.8561 24.5066C37.4297 21.9867 39.7308 18.437 39.7308 14.4359L39 14.4359ZM20 27.8334V27.1026C17.6027 27.1026 15.3159 26.7799 13.2214 26.1968L13.0254 26.9008L12.8294 27.6047C15.0536 28.224 17.4724 28.5641 20 28.5641V27.8334ZM13.0254 26.9008L12.6963 26.2483L4.56836 30.3479L4.89746 31.0004L5.22656 31.6528L13.3545 27.5532L13.0254 26.9008ZM4.89746 31.0004L5.58721 31.2418L7.29229 26.3697L6.60254 26.1283L5.91279 25.8869L4.20771 30.759L4.89746 31.0004ZM6.60254 26.1283L7.32907 26.2069L7.54978 24.1658L6.82324 24.0873L6.09671 24.0087L5.87601 26.0497L6.60254 26.1283ZM6.82324 24.0873L7.23373 23.4827C3.78148 21.1387 1.73078 17.9177 1.73077 14.4359L1 14.4359L0.269231 14.4359C0.269242 18.5366 2.68584 22.1614 6.41275 24.6919L6.82324 24.0873ZM1 14.4359H1.73077C1.73077 11.0378 3.68304 7.88879 6.98609 5.55971C10.2872 3.23202 14.886 1.76922 20 1.76922V1.03845V0.307683C14.6206 0.307683 9.71941 1.84402 6.14385 4.36526C2.57025 6.88511 0.269231 10.4348 0.269231 14.4359H1Z" fill="black"/>
<path d="M10.5 8.83337H29.9872" stroke="black" stroke-width="1.46154" stroke-linecap="round" stroke-linejoin="round"/>
<path d="M10.5 19.5513H29.9872" stroke="black" stroke-width="1.46154" stroke-linecap="round" stroke-linejoin="round"/>
<path d="M6.84619 14.1924H33.6411" stroke="black" stroke-width="1.46154" stroke-linecap="round" stroke-linejoin="round"/>
</svg>
