<?xml version="1.0" encoding="UTF-8" standalone="no"?>
<!-- Created with Inkscape (http://www.inkscape.org/) -->

<svg
   width="103.50027mm"
   height="122.96795mm"
   viewBox="0 0 103.50027 122.96795"
   version="1.1"
   id="svg1"
   xml:space="preserve"
   xmlns="http://www.w3.org/2000/svg"
   xmlns:svg="http://www.w3.org/2000/svg"><defs
     id="defs1" /><g
     id="layer1"
     transform="translate(-222.27715,-302.78594)"><path
       style="fill:#000000;stroke-width:2;stroke-dasharray:none"
       d="m 286.57087,425.09242 v -0.66146 h -0.66145 -0.66146 v -0.66146 -0.66146 h -0.66146 -0.66146 v -0.66145 -0.66146 h -0.66146 -0.66146 v -0.66146 -0.66146 h -1.32291 -1.32292 v -0.66146 -0.66146 h -0.66146 -0.66146 v -0.66145 -0.66146 h -0.66145 -0.66146 v -0.66146 -0.66146 h -0.66146 -0.66146 v -0.66146 -0.66146 h -0.66146 -0.66146 v -1.32291 -1.32292 h 0.66146 0.66146 v -0.66146 -0.66146 h 0.66146 0.66146 v -1.32291 -1.32292 h 0.66146 0.66145 v -1.32292 -1.32291 h 0.66146 0.66146 v -1.32292 -1.32292 h 0.66146 0.66146 v -0.66145 -0.66146 h 1.32291 1.32292 v 1.32291 1.32292 h -0.66146 -0.66146 v 1.32292 1.32291 h -0.66145 -0.66146 v 1.32292 1.32292 h -0.66146 -0.66146 v 1.32291 1.32292 h 1.98438 1.98437 v -0.66146 -0.66146 h 2.51354 2.51354 v -0.66145 -0.66146 h 1.98438 1.98437 v -0.66146 -0.66146 h 1.98438 1.98437 v -0.66146 -0.66146 h 1.32292 1.32292 v -0.66145 -0.66146 h 0.66146 0.66145 v -0.66146 -0.66146 h 1.32292 1.32292 v -0.66146 -0.66146 h 0.66146 0.66145 v -0.66145 -0.66146 h 1.32292 1.32292 v -0.66146 -0.66146 h 0.66146 0.66145 v -0.66146 -0.66146 h 0.66146 0.66146 v -0.66145 -0.66146 h 0.66146 0.66146 v -0.66146 -0.66146 h 0.66146 0.66145 v -0.66146 -0.66146 h 0.52917 0.52917 v -1.32291 -1.32292 h 0.66146 0.66145 v -0.66146 -0.66146 h 0.66146 0.66146 v -1.32291 -1.32292 h 0.66146 0.66146 v -1.32292 -1.32291 h 0.66146 0.66145 v -1.98438 -1.98437 h 0.66146 0.66146 v -1.98438 -1.98437 h 0.66146 0.66146 v -3.96875 -3.96875 h 0.66145 0.66146 v -5.95313 -5.95312 h -0.66146 -0.66145 v -3.96875 -3.96875 h -0.66146 -0.66146 v -2.64583 -2.64584 h -0.66146 -0.66146 v -1.32291 -1.32292 h -0.66145 -0.66146 v -1.32292 -1.32291 h -0.66146 -0.66146 v -1.32292 -1.32292 h -0.66146 -0.66146 v -0.66146 -0.66145 h -0.66145 -0.66146 v -1.32292 -1.32292 h -0.52917 -0.52917 v -0.66146 -0.66145 h -0.66145 -0.66146 v -0.66146 -0.66146 h -0.66146 -0.66146 v -0.66146 -0.66146 h -0.66146 -0.66146 v -0.66146 -0.66145 h -0.66145 -0.66146 v -0.66146 -0.66146 h -0.66146 -0.66146 v -0.66146 -0.66146 h -1.32292 -1.32291 v -0.66146 -0.66145 h -0.66146 -0.66146 v -0.66146 -0.66146 h -1.32292 -1.32291 v -0.66146 -0.66146 h -1.32292 -1.32292 v -0.66146 -0.66145 h -1.32291 -1.32292 v -0.66146 -0.66146 h -1.32292 -1.32291 v -0.66146 -0.66146 h -1.98438 -1.98437 v -0.66146 -0.66145 h -2.51354 -2.51355 v -0.66146 -0.66146 h -0.66145 -0.66146 v -1.32292 -1.32291 h 1.32291 1.32292 v 0.66145 0.66146 h 2.51354 2.51354 v 0.66146 0.66146 h 1.98438 1.98437 v 0.66146 0.66146 h 1.32292 1.32292 v 0.66145 0.66146 h 1.32291 1.32292 v 0.66146 0.66146 h 1.32292 1.32291 v 0.66146 0.66146 h 1.32292 1.32292 v 0.66145 0.66146 h 0.66146 0.66145 v 0.66146 0.66146 h 1.32292 1.32292 v 0.66146 0.66146 h 0.66146 0.66145 v 0.66145 0.66146 h 0.66146 0.66146 v 0.66146 0.66146 h 0.66146 0.66146 v 0.66146 0.66146 h 0.66146 0.66145 v 0.66145 0.66146 h 0.52917 0.52917 v 0.66146 0.66146 h 0.66146 0.66145 v 0.66146 0.66146 h 0.66146 0.66146 v 1.32291 1.32292 h 0.66146 0.66146 v 0.66146 0.66146 h 0.66146 0.66145 v 1.32291 1.32292 h 0.66146 0.66146 v 1.32292 1.32291 h 0.66146 0.66146 v 1.98438 1.98437 h 0.66145 0.66146 v 1.32292 1.32292 h 0.66146 0.66146 v 3.30729 3.30729 h 0.49398 0.49398 l 0.19158,4.88183 0.19158,4.88183 -0.19176,4.37859 -0.19177,4.37858 h -0.4938 -0.49379 v 3.30729 3.30729 h -0.66146 -0.66146 v 1.98438 1.98437 h -0.66146 -0.66145 v 1.98438 1.98437 h -0.66146 -0.66146 v 1.32292 1.32292 h -0.66146 -0.66146 v 1.32291 1.32292 h -0.66145 -0.66146 v 0.66146 0.66146 h -0.66146 -0.66146 v 1.32291 1.32292 h -0.66146 -0.66146 v 0.66146 0.66146 h -0.66145 -0.66146 v 0.66146 0.66145 h -0.52917 -0.52917 v 0.66146 0.66146 h -0.66145 -0.66146 v 0.66146 0.66146 h -0.66146 -0.66146 v 0.66146 0.66145 h -0.66146 -0.66146 v 0.66146 0.66146 h -0.66145 -0.66146 v 0.66146 0.66146 h -1.32292 -1.32292 v 0.66146 0.66145 h -0.66145 -0.66146 v 0.66146 0.66146 h -1.32292 -1.32292 v 0.66146 0.66146 h -1.32291 -1.32292 v 0.66146 0.66145 h -1.98437 -1.98438 v 0.66146 0.66146 h -1.98437 -1.98438 v 0.66146 0.66146 h -1.85208 -1.85209 v 0.66146 0.66145 h -3.30729 -3.30729 v 0.66146 0.66146 h 0.66146 0.66146 v 0.66146 0.66146 h 1.32291 1.32292 v 0.66146 0.66145 h 0.66146 0.66146 v 0.66146 0.66146 h 0.66146 0.66145 v 0.66146 0.66146 h 0.52917 0.52917 v 0.66146 0.66145 h 0.66146 0.66145 v 1.32292 1.32292 h -1.19062 -1.19063 z M 264.08129,415.832 v -0.66146 h -2.51354 -2.51354 v -0.66145 -0.66146 h -1.98438 -1.98437 v -0.66146 -0.66146 h -1.32292 -1.32291 v -0.66146 -0.66146 h -1.32292 -1.32292 v -0.66145 -0.66146 h -1.32291 -1.32292 v -0.66146 -0.66146 h -1.32292 -1.32291 v -0.66146 -0.66146 h -0.66146 -0.66146 v -0.66145 -0.66146 h -1.32292 -1.32291 v -0.66146 -0.66146 h -0.66146 -0.66146 v -0.66146 -0.66146 h -0.66146 -0.66146 v -0.66145 -0.66146 h -0.66146 -0.66145 v -0.66146 -0.66146 h -0.66146 -0.66146 v -0.66146 -0.66146 h -0.52917 -0.52916 v -0.66145 -0.66146 h -0.66146 -0.66146 v -0.66146 -0.66146 h -0.66146 -0.66146 v -1.32292 -1.32291 h -0.66146 -0.66145 v -0.66146 -0.66146 h -0.66146 -0.66146 v -1.32292 -1.32291 h -0.66146 -0.66146 v -1.32292 -1.32292 h -0.66146 -0.66145 v -1.98437 -1.98438 h -0.66146 -0.66146 v -1.98437 -1.98438 h -0.66146 -0.66146 v -3.30729 -3.30729 h -0.66145 -0.66146 v -8.59896 -8.59895 h 0.66146 0.66145 v -3.3073 -3.30729 h 0.66146 0.66146 v -1.98437 -1.98438 h 0.66146 0.66146 v -1.98437 -1.98438 h 0.66145 0.66146 v -1.32291 -1.32292 h 0.66146 0.66146 v -0.66146 -0.66146 h 0.66146 0.66146 v -1.32291 -1.32292 h 0.66145 0.66146 v -0.66146 -0.66146 h 0.66146 0.66146 v -1.32291 -1.32292 h 0.66146 0.66146 v -0.66146 -0.66146 h 0.52916 0.52917 v -0.66146 -0.66145 h 0.66146 0.66146 v -0.66146 -0.66146 h 0.66145 0.66146 v -0.66146 -0.66146 h 0.66146 0.66146 v -0.66146 -0.66145 h 1.32292 1.32291 v -0.66146 -0.66146 h 0.66146 0.66146 v -0.66146 -0.66146 h 1.32292 1.32291 v -0.66146 -0.66145 h 0.66146 0.66146 v -0.66146 -0.66146 h 1.32292 1.32291 v -0.66146 -0.66146 h 1.98438 1.98437 v -0.66146 -0.66145 h 1.98438 1.98437 v -0.66146 -0.66146 h 1.85209 1.85208 v -0.66146 -0.66146 h 3.30729 3.30729 v -0.66146 -0.66145 h -0.66146 -0.66145 v -0.66146 -0.66146 h -1.32292 -1.32292 v -0.66146 -0.66146 h -0.66146 -0.66145 v -0.66146 -0.66145 h -0.66146 -0.66146 v -0.66146 -0.66146 h -0.52917 -0.52916 v -0.66146 -0.66146 h -0.66146 -0.66146 v -1.15978 -1.15978 l 0.68779,-0.13148 0.68779,-0.13148 0.50284,0.1315 0.50283,0.13149 v 0.49831 0.49831 h 0.66146 0.66146 v 0.66145 0.66146 h 0.66145 0.66146 v 0.66146 0.66146 h 1.32292 1.32292 v 0.66146 0.66146 h 0.66145 0.66146 v 0.66145 0.66146 h 0.66146 0.66146 v 0.66146 0.66146 h 0.66146 0.66146 v 0.66146 0.66146 h 0.66145 0.66146 v 0.66145 0.66146 h 0.66146 0.66146 v 1.32292 1.32292 h -0.66146 -0.66146 v 1.32291 1.32292 h -0.66146 -0.66145 v 0.66146 0.66146 h -0.66146 -0.66146 v 1.32291 1.32292 h -0.66146 -0.66146 v 1.32292 1.32291 h -0.66146 -0.66145 v 0.66146 0.66146 h -1.32292 -1.32292 v -1.32292 -1.32291 h 0.66146 0.66146 v -1.32292 -1.32292 h 0.66146 0.66146 v -1.32291 -1.32292 h 0.66145 0.66146 v -1.32292 -1.32291 h -1.98437 -1.98438 v 0.66145 0.66146 h -2.51354 -2.51354 v 0.66146 0.66146 h -1.98438 -1.98437 v 0.66146 0.66146 h -1.32292 -1.32291 v 0.66145 0.66146 h -1.32292 -1.32292 v 0.66146 0.66146 h -1.32291 -1.32292 v 0.66146 0.66146 h -1.32292 -1.32291 v 0.66145 0.66146 h -0.66146 -0.66146 v 0.66146 0.66146 h -1.32292 -1.32291 v 0.66146 0.66146 h -0.66146 -0.66146 v 0.66145 0.66146 h -0.66146 -0.66146 v 0.66146 0.66146 h -0.66146 -0.66145 v 0.66146 0.66146 h -0.66146 -0.66146 v 0.66145 0.66146 h -0.52917 -0.52916 v 1.32292 1.32292 h -0.66146 -0.66146 v 0.66145 0.66146 h -0.66146 -0.66146 v 1.32292 1.32292 h -0.66146 -0.66145 v 1.32291 1.32292 h -0.66146 -0.66146 v 1.98437 1.98438 h -0.66146 -0.66146 v 1.98437 1.98438 h -0.66146 -0.66145 v 5.29167 5.29166 h -0.66146 -0.66146 v 3.96875 3.96875 h 0.66146 0.66146 v 4.63021 4.63021 h 0.66145 0.66146 v 1.98437 1.98438 h 0.66146 0.66146 v 1.98437 1.98438 h 0.66146 0.66146 v 1.32291 1.32292 h 0.66145 0.66146 v 1.32292 1.32291 h 0.66146 0.66146 v 0.66146 0.66146 h 0.66146 0.66146 v 1.32292 1.32291 h 0.52916 0.52917 v 0.66146 0.66146 h 0.66146 0.66146 v 0.66146 0.66146 h 0.66145 0.66146 v 0.66146 0.66145 h 0.66146 0.66146 v 0.66146 0.66146 h 0.66146 0.66146 v 0.66146 0.66146 h 1.32291 1.32292 v 0.66146 0.66145 h 0.66146 0.66146 v 0.66146 0.66146 h 0.66145 0.66146 v 0.66146 0.66146 h 1.32292 1.32292 v 0.66146 0.66145 h 1.32291 1.32292 v 0.66146 0.66146 h 1.32292 1.32291 v 0.66146 0.66146 h 1.32292 1.32292 v 0.66146 0.66145 h 1.98437 1.98438 v 0.66146 0.66146 h 2.51354 2.51354 v 0.66146 0.66146 h 0.66146 0.66146 v 1.32291 1.32292 h -1.32292 -1.32292 z m -12.96458,-17.19791 v -0.66146 h -0.66146 -0.66146 v -19.84375 -19.84375 h -1.32291 -1.32292 v 0.66146 0.66146 h -1.32292 -1.32291 v -0.66146 -0.66146 h -0.66146 -0.66146 v -0.66146 -0.66146 h -0.66146 -0.66146 v -1.32291 -1.32292 h -0.66146 -0.66145 v -1.32292 -1.32291 h -0.66146 -0.66146 v -1.32292 -1.32292 h -0.66146 -0.66146 v -0.66146 -0.66145 h -0.66146 -0.66145 v -1.32292 -1.32292 h -0.66146 -0.66146 v -1.32291 -1.32292 h 0.66146 0.66146 v -0.66146 -0.66146 h 1.32291 1.32292 v -0.66146 -0.66145 h 1.32292 1.32291 v -0.66146 -0.66146 h 0.66146 0.66146 v -0.66146 -0.66146 h 1.32292 1.32291 v -0.66146 -0.66145 h 1.32292 1.32292 v -0.66146 -0.66146 h 1.32291 1.32292 v -0.66146 -0.66146 h 0.66146 0.66146 v -0.66146 -0.66145 h 1.32291 1.32292 v -0.66146 -0.66146 h 1.32292 1.32291 v -0.66146 -0.66146 h 16.93333 16.93334 v 0.66146 0.66146 h 0.66146 0.66145 v 0.66146 0.66146 h 1.32292 1.32292 v 0.66145 0.66146 h 1.32291 1.32292 v 0.66146 0.66146 h 1.32292 1.32291 v 0.66146 0.66146 h 1.32292 1.32292 v 0.66145 0.66146 h 0.66146 0.66145 v 0.66146 0.66146 h 1.32292 1.32292 v 0.66146 0.66146 h 1.32291 1.32292 v 0.66145 0.66146 h 0.66146 0.66146 v 0.66146 0.66146 h 0.66146 0.66145 v 1.98437 1.98438 h -0.66145 -0.66146 v 1.32292 1.32291 h -0.66146 -0.66146 v 0.66146 0.66146 h -0.66146 -0.66146 v 1.32292 1.32291 h -0.66145 -0.66146 v 1.32292 1.32292 h -0.66146 -0.66146 v 0.66145 0.66146 h -0.66146 -0.66146 v 1.32292 1.32292 h -1.98437 -1.98438 v -0.66146 -0.66146 h -1.32291 -1.32292 v 20.50521 20.5052 h -23.54792 -23.54791 z m 22.225,-14.55209 v -11.24479 h -0.66146 -0.66146 v -0.66146 -0.66145 h -3.30729 -3.30729 v -0.66146 -0.66146 h -1.32292 -1.32291 v -0.66146 -0.66146 h -1.19063 -1.19062 v 0.66146 0.66146 h -1.98438 -1.98437 v -0.66146 -0.66146 h 0.66145 0.66146 v -1.32291 -1.32292 h 0.66146 0.66146 v -0.66146 -0.66146 h 0.66146 0.66146 v -1.32291 -1.32292 h 0.52916 0.52917 v -0.66146 -0.66146 h 0.66146 0.66146 v -0.66146 -0.66145 h 0.66145 0.66146 v -0.66146 -0.66146 h 0.66146 0.66146 v -0.66146 -0.66146 h 0.66146 0.66146 v -0.66146 -0.66145 h 0.66145 0.66146 v -0.66146 -0.66146 h 1.32292 1.32292 v -0.66146 -0.66146 h 1.32291 1.32292 v -8.59896 -8.59895 h -1.32292 -1.32291 v 0.66145 0.66146 h -0.66146 -0.66146 v 0.66146 0.66146 h -0.66146 -0.66146 v 0.66146 0.66146 h -1.32291 -1.32292 v -0.66146 -0.66146 h -0.66146 -0.66146 v -0.66146 -0.66146 h -0.66146 -0.66145 v -0.66146 -0.66145 h -0.66146 -0.66146 v -0.66146 -0.66146 h -0.52917 -0.52916 v -0.66146 -0.66146 h -1.98438 -1.98437 v 0.66146 0.66146 h -1.32292 -1.32292 v 0.66146 0.66146 h -0.66146 -0.66145 v 0.66145 0.66146 h -1.32292 -1.32292 v 0.66146 0.66146 h -1.32291 -1.32292 v 0.66146 0.66146 h -1.32292 -1.32291 v 0.66145 0.66146 h -0.66146 -0.66146 v 0.66146 0.66146 h -1.32292 -1.32291 v 0.66146 0.66146 h -0.66146 -0.66146 v 1.32291 1.32292 h 0.66146 0.66146 v 0.66146 0.66146 h 0.66145 0.66146 v 1.32291 1.32292 h 0.66146 0.66146 v 1.32292 1.32291 h 0.66146 0.66146 v 0.66146 0.66146 h 0.66145 0.66146 v 0.66146 0.66146 h 1.98438 1.98437 v -0.66146 -0.66146 h 1.32292 1.32292 v 0.66146 0.66146 h 0.66145 0.66146 v 19.84374 19.84375 h 9.78959 9.78958 z m 22.225,-9.26041 v -20.50521 h 1.98437 1.98438 v 0.66146 0.66146 h 1.98437 1.98438 v -0.66146 -0.66146 h 0.66146 0.66145 v -1.32292 -1.32291 h 0.66146 0.66146 v -1.32292 -1.32292 h 0.66146 0.66146 v -0.66146 -0.66145 h 0.66146 0.66145 v -1.32292 -1.32292 h 0.66146 0.66146 v -0.66146 -0.66145 h -0.66146 -0.66146 v -0.66146 -0.66146 h -1.32291 -1.32292 v -0.66146 -0.66146 h -1.32292 -1.32291 v -0.66146 -0.66145 h -1.32292 -1.32292 v -0.66146 -0.66146 h -0.66145 -0.66146 v -0.66146 -0.66146 h -1.32292 -1.32292 v -0.66146 -0.66145 h -1.32291 -1.32292 v -0.66146 -0.66146 h -1.32292 -1.32291 v -0.66146 -0.66146 h -1.98438 -1.98437 v 0.66146 0.66146 h -0.52917 -0.52917 v 0.66146 0.66146 h -0.66145 -0.66146 v 1.32291 1.32292 h -0.66146 -0.66146 v 0.66146 0.66146 h -1.32292 -1.32291 v -0.66146 -0.66146 h -0.66146 -0.66146 v -0.66146 -0.66146 h -1.32292 -1.32291 v -0.66146 -0.66145 h -0.66146 -0.66146 v 7.9375 7.9375 h 6.48229 6.48229 v -0.66146 -0.66146 h 0.66146 0.66146 v 3.30729 3.30729 h -0.66146 -0.66146 v 1.32292 1.32292 h -0.66145 -0.66146 v 1.32291 1.32292 h -0.52917 -0.52917 v 1.32292 1.32291 h -0.66145 -0.66146 v 0.66146 0.66146 h -0.66146 -0.66146 v 0.66146 0.66146 h -0.66146 -0.66146 v 0.66145 0.66146 h -0.66145 -0.66146 v 0.66146 0.66146 h -1.32292 -1.32292 v 0.66146 0.66146 h -1.32291 -1.32292 v 11.90624 11.90625 h 9.78958 9.78959 z m -22.225,-6.61459 v -0.66145 h -0.66146 -0.66146 v -0.66146 -0.66146 h -1.32291 -1.32292 v -0.66146 -0.66146 h -2.64583 -2.64584 v 1.32292 1.32292 h 1.98438 1.98437 v 0.66145 0.66146 h 2.64584 2.64583 z m 7.9375,-2.64583 v -0.66146 h 0.66146 0.66145 v -0.66146 -0.66145 h 0.66146 0.66146 v -0.66146 -0.66146 h -1.98437 -1.98438 v -0.66146 -0.66146 h -1.98437 -1.98438 v 1.98438 1.98437 h 0.66146 0.66146 v 0.66146 0.66146 h 1.98437 1.98438 z m -7.9375,-2.64583 v -0.66146 h -0.66146 -0.66146 v 0.66146 0.66146 h 0.66146 0.66146 z m -5.29167,-2.64584 v -0.66145 h 0.66146 0.66146 v -0.66146 -0.66146 h 0.66146 0.66146 v -0.66146 -0.66146 h -0.66146 -0.66146 v 0.66146 0.66146 h -0.66146 -0.66146 v 0.66146 0.66146 h -0.66146 -0.66145 v 0.66145 0.66146 h 0.66145 0.66146 z m 18.52083,-1.98437 v -1.32292 h -1.32291 -1.32292 v 0.66146 0.66146 h -0.66146 -0.66146 v 0.66146 0.66146 h 1.98438 1.98437 z m -7.9375,-1.98438 v -0.66145 h -1.32291 -1.32292 v 0.66145 0.66146 h 1.32292 1.32291 z m -10.58333,-21.16666 v -0.66146 h 0.66146 0.66146 v -0.66146 -0.66146 h -2.64583 -2.64584 v 0.66146 0.66146 h 0.66146 0.66146 v 0.66146 0.66146 h 1.32292 1.32291 z m 14.55208,0 v -0.66146 h 0.66146 0.66146 v -0.66146 -0.66146 h -1.98437 -1.98438 v 0.66146 0.66146 h 0.66146 0.66146 v 0.66146 0.66146 h 0.66146 0.66145 z"
       id="path61" /></g></svg>
