<?xml version="1.0" encoding="UTF-8" standalone="no"?>
<!-- Created with Inkscape (http://www.inkscape.org/) -->

<svg
   width="117.21041mm"
   height="117.89967mm"
   viewBox="0 0 117.21041 117.89967"
   version="1.1"
   id="svg1"
   xml:space="preserve"
   xmlns="http://www.w3.org/2000/svg"
   xmlns:svg="http://www.w3.org/2000/svg"><defs
     id="defs1" /><g
     id="layer1"
     transform="translate(-591.5599,-174.56207)"><path
       style="fill:#000000"
       d="m 678.60783,291.93257 v -0.52917 h -0.66146 -0.66146 v -0.66146 -0.66146 h -0.66145 -0.66146 v -0.66146 -0.66145 h -0.66146 -0.66146 v -0.66146 -0.66146 h -0.66146 -0.66146 v -0.66146 -0.66146 h -0.66145 -0.66146 v -0.66146 -0.66145 h -0.66146 -0.66146 v -1.32292 -1.32292 h -0.66146 -0.66146 v -0.66146 -0.66145 h -0.66145 -0.66146 v -0.66146 -0.66146 h -0.66146 -0.66146 v -0.66146 -0.66146 h -0.66146 -0.66146 v -0.66146 -0.66145 h -0.66145 -0.66146 v -0.66146 -0.66146 h -0.66146 -0.66146 v -0.66146 -0.66146 h -0.66146 -0.66146 v -0.52916 -0.52917 h -0.66145 -0.66146 v -0.66146 -0.66146 h -0.66146 -0.66146 v -0.66146 -0.66145 h -0.66146 -0.66146 v -1.32292 -1.32292 h -0.66145 -0.66146 v -7.27604 -7.27604 h -0.66146 -0.66146 v -1.32292 -1.32292 h 0.66146 0.66146 v -1.32291 -1.32292 h 0.66146 0.66145 v -0.66146 -0.66146 h 0.66146 0.66146 v -1.32291 -1.32292 h 0.66146 0.66146 v -1.32292 -1.32291 h 0.66146 0.66145 v -1.32292 -1.32292 h 0.66146 0.66146 v -0.66145 -0.66146 h 0.66146 0.66146 v -1.32292 -1.32292 h 1.32291 1.32292 v 0.66146 0.66146 h 1.32292 1.32291 v 0.66146 0.66146 h 0.66146 0.66146 v 0.66146 0.66145 h 1.32292 1.32291 v 0.66146 0.66146 h 1.32292 1.32292 v 0.66146 0.66146 h 0.66146 0.66145 v 0.66146 0.66145 h -0.66145 -0.66146 v 1.32292 1.32292 h -0.66146 -0.66146 v 0.66146 0.66145 h 1.32292 1.32291 v -1.32291 -1.32292 h 0.66146 0.66146 v -0.66146 -0.66146 h 0.52917 0.52916 v -4.49791 -4.49792 h -0.52916 -0.52917 v -2.64583 -2.64584 h 1.19063 1.19062 v -0.66145 -0.66146 h 1.98438 1.98437 v -0.66146 -0.66146 h 2.64583 2.64584 v -0.66146 -0.66146 h 1.98437 1.98438 v -0.66145 -0.66146 h 1.32291 1.32292 v 0.66146 0.66145 h 1.32292 1.32291 v 0.66146 0.66146 h 1.32292 1.32292 v 0.66146 0.66146 h 0.66146 0.66145 v 0.66146 0.66145 h 1.32292 1.32292 v 0.66146 0.66146 h 0.66146 0.66145 v 0.66146 0.66146 h 0.66146 0.66146 v 5.15937 5.15938 h -0.66146 -0.66146 v 7.27604 7.27604 h -0.66145 -0.66146 v 1.32292 1.32291 h -0.66146 -0.66146 v 0.66146 0.66146 h -0.66146 -0.66146 v 1.32292 1.32292 h -0.66145 -0.66146 v 0.66145 0.66146 h -0.66146 -0.66146 v 1.32292 1.32292 h -0.66146 -0.66146 v 0.66145 0.66146 h -0.66145 -0.66146 v 1.32292 1.32292 h -0.66146 -0.66146 v 0.66145 0.66146 h -1.32292 -1.32291 v 0.66146 0.66146 h -1.98438 -1.98437 v 0.52917 0.52916 h -2.64584 -2.64583 v 1.32292 1.32292 h 0.66146 0.66146 v 0.66145 0.66146 h 0.66146 0.66145 v 0.66146 0.66146 h 0.66146 0.66146 v 0.66146 0.66146 h 0.66146 0.66146 v 0.66145 0.66146 h -0.66146 -0.66146 v 0.66146 0.66146 h -0.66146 -0.66146 v 0.66146 0.66146 h -0.66145 -0.66146 v 0.66145 0.66146 h -0.66146 -0.66146 v 0.66146 0.66146 h -0.66146 -0.66146 v 0.66146 0.66146 h -0.66145 -0.66146 v 0.66145 0.66146 h -0.66146 -0.66146 v 0.66146 0.66146 h -0.69232 -0.69231 l 0.13838,0.52917 0.13838,0.52916 h -0.63669 -0.63669 z m 2.38125,-3.83646 v -0.66146 h 0.66146 0.66146 v -0.66146 -0.66146 h 0.66146 0.66145 v -0.66146 -0.66145 h 0.66146 0.66146 v -1.32292 -1.32292 h 0.66146 0.66146 v -0.66146 -0.66145 h -0.66146 -0.66146 v 0.66145 0.66146 h -0.66146 -0.66146 v 0.66146 0.66146 h -0.66145 -0.66146 v 0.66146 0.66146 h -0.66146 -0.66146 v 0.66145 0.66146 h -0.66146 -0.66146 v 0.66146 0.66146 h -0.52916 -0.52917 v 0.66146 0.66146 h 1.19063 1.19062 z m -3.70417,-2.64584 v -0.66145 h 0.66146 0.66146 v -0.66146 -0.66146 h 0.52917 0.52916 v -0.66146 -0.66146 h 0.66146 0.66146 v -0.66146 -0.66145 h 0.66146 0.66146 v -0.66146 -0.66146 h 0.66146 0.66145 v -0.66146 -0.66146 h -0.66145 -0.66146 v -0.66146 -0.66145 h -0.66146 -0.66146 v -0.66146 -0.66146 h -0.66146 -0.66146 v -0.66146 -0.66146 h 0.66146 0.66146 v -0.52916 -0.52917 h 1.98438 1.98437 v -0.66146 -0.66146 h 1.98438 1.98437 v -0.66146 -0.66145 h 2.64583 2.64584 v -0.66146 -0.66146 h 0.66146 0.66145 v -0.66146 -0.66146 h 0.66146 0.66146 v -1.32291 -1.32292 h 0.66146 0.66146 v -0.66146 -0.66146 h 0.66146 0.66145 v -1.32291 -1.32292 h 0.66146 0.66146 v -0.66146 -0.66146 h 0.66146 0.66146 v -1.32292 -1.32291 h 0.66146 0.66145 v -1.32292 -1.32292 h 0.66146 0.66146 v -7.9375 -7.9375 h 0.66146 0.66146 v -3.175 -3.175 h -0.66146 -0.66146 v -0.66145 -0.66146 h -0.66146 -0.66146 v -0.66146 -0.66146 h -1.32291 -1.32292 v -0.66146 -0.66146 h -1.32292 -1.32291 v -0.66145 -0.66146 h -0.66146 -0.66146 v 1.98437 1.98438 h -0.66146 -0.66146 v 4.49791 4.49792 h -0.66145 -0.66146 v 3.96875 3.96875 h -0.66146 -0.66146 v 1.32292 1.32291 h -0.66146 -0.66146 v 1.32292 1.32292 h -0.66145 -0.66146 v 1.32291 1.32292 h -0.66146 -0.66146 v 1.32292 1.32291 h -1.32292 -1.32291 v 0.66146 0.66146 h -1.98438 -1.98437 v 0.66146 0.66146 h -1.32292 -1.32292 v 0.66146 0.66146 h -1.85208 -1.85208 v 0.66145 0.66146 h -1.32292 -1.32292 v 0.66146 0.66146 h -1.98437 -1.98438 v 1.32292 1.32291 h 0.66146 0.66146 v 1.32292 1.32292 h -0.66146 -0.66146 v 0.66145 0.66146 h -0.66145 -0.66146 v 0.66146 0.66146 h -0.66146 -0.66146 v 1.19062 1.19063 h 0.66146 0.66146 v 0.66146 0.66146 h 0.66146 0.66145 v 1.32291 1.32292 h 0.66146 0.66146 v 0.66146 0.66146 h 0.66146 0.66146 v 0.66145 0.66146 h 0.66146 0.66145 v 0.66146 0.66146 h 0.66146 0.66146 v 0.66146 0.66146 h 0.66146 0.66146 v 0.66145 0.66146 h 0.66146 0.66145 z m -13.22916,-16.93333 v -3.30729 h -1.32292 -1.32292 v -0.66146 -0.66146 h -1.32291 -1.32292 v 1.98438 1.98437 h 0.66146 0.66146 v 0.66146 0.66146 h 0.66146 0.66145 v 0.66146 0.66146 h 0.66146 0.66146 v 0.66145 0.66146 h 0.66146 0.66146 z m 3.96875,0 v -0.66146 h -0.66146 -0.66146 v 0.66146 0.66146 h 0.66146 0.66146 z m -2.64584,-5.29167 v -0.66145 h -0.66145 -0.66146 v 0.66145 0.66146 h 0.66146 0.66145 z m 3.96875,0 v -0.66145 h 1.32292 1.32292 v -0.66146 -0.66146 h 1.98437 1.98438 v -0.66146 -0.66146 h 1.32291 1.32292 v -0.66146 -0.66146 h 1.85208 1.85209 v -0.66145 -0.66146 h 1.32291 1.32292 v -0.66146 -0.66146 h 0.66146 0.66146 v -0.66146 -0.66146 h 0.66146 0.66145 v -0.66145 -0.66146 h 0.66146 0.66146 v -1.32292 -1.32292 h 0.66146 0.66146 v -1.32291 -1.32292 h 0.66146 0.66145 v -3.96875 -3.96875 h 0.66146 0.66146 v -4.49792 -4.49791 h 0.66146 0.66146 v -1.98438 -1.98437 h -1.98438 -1.98437 v 0.66146 0.66145 h -2.64584 -2.64583 v 0.66146 0.66146 h -1.98437 -1.98438 v 1.98438 1.98437 h 0.66146 0.66146 v 4.49792 4.49791 h -0.66146 -0.66146 v 1.32292 1.32292 h -0.66146 -0.66146 v 1.32291 1.32292 h -0.52916 -0.52917 v 0.66146 0.66146 h -1.32292 -1.32291 v 0.66146 0.66145 h -1.32292 -1.32292 v 0.66146 0.66146 h -1.98437 -1.98438 v -1.32292 -1.32291 h 0.66146 0.66146 v -1.32292 -1.32292 h 0.66146 0.66146 v -0.66145 -0.66146 h -1.32292 -1.32292 v -0.66146 -0.66146 h -1.32291 -1.32292 v -0.66146 -0.66146 h -0.66146 -0.66146 v -0.66145 -0.66146 h -0.66145 -0.66146 v 0.66146 0.66145 h -0.66146 -0.66146 v 0.66146 0.66146 h -0.66146 -0.66146 v 1.32292 1.32291 h -0.66145 -0.66146 v 1.32292 1.32292 h -0.66146 -0.66146 v 1.32291 1.32292 h -0.66146 -0.66146 v 0.66146 0.66146 h 0.66146 0.66146 v 3.30729 3.30729 h 4.63021 4.63021 v 1.98438 1.98437 h 0.66146 0.66145 z m 3.96875,-20.50521 v -1.32291 h -1.32291 -1.32292 v -0.66146 -0.66146 h -1.32292 -1.32291 v -0.66146 -0.66146 h -1.32292 -1.32292 v 0.66146 0.66146 h 1.32292 1.32292 v 0.66146 0.66146 h 1.32291 1.32292 v 0.66146 0.66145 h 0.66146 0.66146 v 0.66146 0.66146 h 0.66146 0.66145 z m -43.65625,30.95626 v -0.52917 h -1.32291 -1.32292 v -0.66146 -0.66146 h -0.66146 -0.66146 v -0.66146 -0.66145 h -1.32291 -1.32292 v -0.66146 -0.66146 h -0.66146 -0.66146 v -0.66146 -0.66146 h -1.19062 -1.19063 v -0.66146 -0.66145 h -0.66145 -0.66146 v -0.66146 -0.66146 h -1.32292 -1.32292 v -0.66146 -0.66146 h -0.66145 -0.66146 v -0.66146 -0.66145 h -1.32292 -1.32292 v -0.66146 -0.66146 h -0.66146 -0.66145 v -0.66146 -0.66146 h -0.66146 -0.66146 v -1.32292 -1.32291 h -0.66146 -0.66146 v -1.32292 -1.32292 h -0.66146 -0.66145 v -1.32291 -1.32292 h -0.66146 -0.66146 v -1.32292 -1.32291 h -0.66146 -0.66146 v -1.98438 -1.98437 h -0.66146 -0.66145 v -3.96875 -3.96875 h 0.66145 0.66146 v -2.51354 -2.51355 h 0.66146 0.66146 v -0.66145 -0.66146 h -1.32292 -1.32291 v 0.66146 0.66145 h -2.64584 -2.64583 v 0.66146 0.66146 h -0.66146 -0.66146 v -1.32292 -1.32291 h -0.66146 -0.66145 v -2.64584 -2.64583 h -0.66146 -0.66146 v -2.64583 -2.64584 h -0.66146 -0.66146 v -1.32291 -1.32292 h 1.32292 1.32292 v -0.66146 -0.66146 h 2.64583 2.64583 v -0.66145 -0.66146 h 3.30729 3.3073 v -0.66146 -0.66146 h 2.64583 2.64583 v -0.66146 -0.66146 h 3.3073 3.30729 v -0.66145 -0.66146 h 4.49791 4.49792 v 0.66146 0.66145 h 1.32292 1.32291 v 0.66146 0.66146 h 1.32292 1.32292 v 0.66146 0.66146 h 1.32291 1.32292 v 0.66146 0.66145 h 1.32292 1.32291 v 0.66146 0.66146 h 1.32292 1.32292 v 0.66146 0.66146 h 0.66146 0.66145 v 1.32291 1.32292 h 0.66146 0.66146 v 1.32292 1.32291 h 0.66146 0.66146 v 1.32292 1.32292 h 0.66146 0.66145 v 0.66146 0.66145 h 0.66146 0.66146 v 1.32292 1.32292 h 0.66146 0.66146 v 1.32291 1.32292 h 0.66146 0.66145 v 0.52917 0.52916 h -1.32291 -1.32292 v 0.66146 0.66146 h -0.66146 -0.66146 v 0.66146 0.66146 h -1.32291 -1.32292 v 0.66146 0.66145 h -1.32292 -1.32291 v 0.66146 0.66146 h -0.66146 -0.66146 v 0.66146 0.66146 h -1.32292 -1.32291 v -0.66146 -0.66146 h -0.66146 -0.66146 v -1.32292 -1.32291 h -0.66146 -0.66146 v 1.98437 1.98438 h 0.66146 0.66146 v 1.32291 1.32292 h 1.32292 1.32291 v 0.66146 0.66146 h 1.32292 1.32292 v 0.66146 0.66145 h 1.32291 1.32292 v 0.66146 0.66146 h 1.32292 1.32291 v 0.66146 0.66146 h 1.32292 1.32292 v 0.66146 0.66145 h -0.66146 -0.66146 v 2.64584 2.64583 h -0.66146 -0.66146 v 3.30729 3.3073 h -0.66145 -0.66146 v 2.64583 2.64583 h -1.32292 -1.32292 v 0.66146 0.66146 h -1.32291 -1.32292 v 0.66146 0.66146 h -1.32292 -1.32291 v 0.66145 0.66146 h -0.66146 -0.66146 v 0.66146 0.66146 h -1.32292 -1.32291 v 0.52917 0.52916 h -1.32292 -1.32292 z m 1.32292,-2.51355 v -0.66145 h 1.32292 1.32291 v -0.66146 -0.66146 h 1.32292 1.32292 v -0.66146 -0.66146 h 1.32291 1.32292 v -1.32291 -1.32292 h -0.66146 -0.66146 v -0.66146 -0.66146 h -0.66145 -0.66146 v -0.66146 -0.66145 h -0.66146 -0.66146 v -0.66146 -0.66146 h -1.32292 -1.32291 v -0.66146 -0.66146 h -0.66146 -0.66146 v -0.66146 -0.66146 h -0.66146 -0.66146 v -0.66145 -0.66146 h -0.66145 -0.66146 v -0.66146 -0.66146 h -1.32292 -1.32292 v -0.66146 -0.66146 h -0.66145 -0.66146 v -0.66145 -0.66146 h -0.66146 -0.66146 v -0.66146 -0.66146 h -0.66146 -0.66146 v -1.32292 -1.32291 h -0.52916 -0.52917 v -0.66146 -0.66146 h -0.66146 -0.66146 v -1.32292 -1.32291 h -0.66145 -0.66146 v -1.32292 -1.32292 h -0.66146 -0.66146 v -0.66145 -0.66146 h 0.66146 0.66146 v -4.49792 -4.49792 h 0.66146 0.66145 v -4.6302 -4.63021 h 0.66146 0.66146 v -0.66146 -0.66146 h -0.66146 -0.66146 v 0.66146 0.66146 h -1.32291 -1.32292 v -0.66146 -0.66146 h -0.66146 -0.66146 v -1.98437 -1.98438 h -0.66145 -0.66146 v -1.32292 -1.32291 h -0.66146 -0.66146 v 0.66146 0.66145 h -3.30729 -3.30729 v 0.66146 0.66146 h -2.64584 -2.64583 v 0.66146 0.66146 h -1.32292 -1.32291 v 0.66146 0.66145 h 0.66145 0.66146 v 2.64584 2.64583 h 0.66146 0.66146 v 1.98438 1.98437 h 0.66146 0.66146 v -0.66146 -0.66146 h 2.64583 2.64583 v 1.98438 1.98437 h -0.66146 -0.66145 v 2.51355 2.51354 h -0.66146 -0.66146 v 3.96875 3.96875 h 0.66146 0.66146 v 1.32291 1.32292 h 0.66145 0.66146 v 1.32292 1.32291 h 0.66146 0.66146 v 1.32292 1.32292 h 0.66146 0.66146 v 1.32291 1.32292 h 0.66145 0.66146 v 1.32292 1.32291 h 0.66146 0.66146 v 0.66146 0.66146 h 0.66146 0.66146 v 0.66146 0.66146 h 1.32291 1.32292 v 0.66146 0.66146 h 0.66146 0.66146 v 0.66145 0.66146 h 1.32291 1.32292 v 0.66146 0.66146 h 0.52917 0.52916 v 0.66146 0.66146 h 1.32292 1.32292 v 0.66145 0.66146 h 0.66146 0.66145 v 0.66146 0.66146 h 1.32292 1.32292 v 0.66146 0.66146 h 0.66146 0.66145 v 0.66145 0.66146 h 0.66146 0.66146 z m 10.58333,-8.59895 v -1.32292 h 0.66146 0.66146 v -2.64584 -2.64583 h 0.66146 0.66146 v -2.64583 -2.64584 h -1.32292 -1.32292 v -0.66145 -0.66146 h -1.32291 -1.32292 v -0.66146 -0.66146 h -1.32292 -1.32291 v -0.66146 -0.66146 h -1.32292 -1.32292 v -1.32291 -1.32292 h -0.66145 -0.66146 v -1.32292 -1.32291 h -0.66146 -0.66146 v -5.82084 -5.82083 h 1.32292 1.32291 v 1.32292 1.32291 h 0.66146 0.66146 v 1.19063 1.19062 h 0.66146 0.66146 v -0.52916 -0.52917 h 1.32291 1.32292 v -0.66146 -0.66146 h 1.32292 1.32291 v -0.66145 -0.66146 h 0.66146 0.66146 v -1.98438 -1.98437 h -0.66146 -0.66146 v -0.66146 -0.66146 h -0.66145 -0.66146 v -1.32292 -1.32291 h -0.66146 -0.66146 v -1.32292 -1.32292 h -0.66146 -0.66146 v -0.66145 -0.66146 h -1.32291 -1.32292 v -0.66146 -0.66146 h -1.32292 -1.32291 v -0.66146 -0.66146 h -1.32292 -1.32292 v 1.32292 1.32292 h -0.66145 -0.66146 v 1.32291 1.32292 h -0.66146 -0.66146 v 1.32292 1.32291 h -1.32292 -1.32291 v -0.66145 -0.66146 h -1.32292 -1.32292 v 4.63021 4.6302 h -0.52916 -0.52917 v 4.49792 4.49792 h -0.66146 -0.66146 v 0.66146 0.66145 h 0.66146 0.66146 v 1.32292 1.32292 h 0.52917 0.52916 v 0.66146 0.66145 h 0.66146 0.66146 v 1.32292 1.32292 h 0.66146 0.66146 v 0.66146 0.66145 h 0.66146 0.66145 v 0.66146 0.66146 h 0.66146 0.66146 v 0.66146 0.66146 h 0.66146 0.66146 v 0.66146 0.66145 h 1.32291 1.32292 v 0.66146 0.66146 h 0.66146 0.66146 v 0.66146 0.66146 h 0.66146 0.66145 v 0.66146 0.66145 h 0.66146 0.66146 v 0.66146 0.66146 h 1.32292 1.32291 v 0.66146 0.66146 h 0.66146 0.66146 v 0.66146 0.66146 h 0.66146 0.66146 v 0.66145 0.66146 h 0.66146 0.66145 z m -1.32291,-25.79688 v -0.66146 h 1.32291 1.32292 v -0.66146 -0.66146 h 0.66146 0.66146 v -0.52916 -0.52917 h 0.66146 0.66145 v -0.66146 -0.66146 h -0.66145 -0.66146 v 0.66146 0.66146 h -1.32292 -1.32292 v 0.52917 0.52916 h -1.32291 -1.32292 v 0.66146 0.66146 h -0.66146 -0.66146 v 0.66146 0.66146 h 1.32292 1.32292 z m -42.06875,-8.99583 v -1.98438 h -0.66146 -0.66146 v 1.98438 1.98437 h 0.66146 0.66146 z m -1.32292,-5.29167 v -1.98438 h -0.66146 -0.66146 v -0.66145 -0.66146 h -0.66146 -0.66145 v 0.66146 0.66145 h 0.66145 0.66146 v 1.98438 1.98437 h 0.66146 0.66146 z m 22.48958,-2.64583 v -0.66146 h -0.66145 -0.66146 v 0.66146 0.66145 h 0.66146 0.66145 z m 6.35,0 v -0.66146 h -0.66145 -0.66146 v 0.66146 0.66145 h 0.66146 0.66145 z m -1.32291,-2.64584 v -0.66146 h 0.66146 0.66145 v -1.32291 -1.32292 h -3.175 -3.175 v 1.32292 1.32291 h 0.66146 0.66146 v 0.66146 0.66146 h 1.85208 1.85209 z m 29.10416,-2.64583 v -7.27604 h 2.64584 2.64583 v -0.66146 -0.66146 h -4.63021 -4.63021 v 0.66146 0.66146 h -0.66145 -0.66146 v 0.66146 0.66145 h -0.66146 -0.66146 v 0.66146 0.66146 h -1.32292 -1.32291 v 0.66146 0.66146 h -0.66146 -0.66146 v 0.66146 0.66145 h -1.32292 -1.32291 v -0.66145 -0.66146 h -0.66146 -0.66146 v -0.66146 -0.66146 h -0.66146 -0.66146 v -0.66146 -0.66146 h -1.32291 -1.32292 v -0.66145 -0.66146 h -0.66146 -0.66146 v -0.66146 -0.66146 h -0.66145 -0.66146 v -0.66146 -0.66146 h -0.66146 -0.66146 v -0.66145 -0.66146 h -0.66146 -0.66146 v -0.66146 -0.66146 h -0.66145 -0.66146 v -0.66146 -0.66146 h -0.66146 -0.66146 v -2.64583 -2.64583 h 0.66146 0.66146 v -5.15938 -5.15937 h 1.32291 1.32292 v -0.66146 -0.66146 h 1.32292 1.32291 v -0.66146 -0.66146 h 1.32292 1.32292 v -0.66146 -0.66145 h 1.32291 1.32292 v -0.66146 -0.66146 h 1.32292 1.32291 v -0.66146 -0.66146 h 1.32292 1.32292 v -0.66146 -0.66145 h 1.32291 1.32292 v -0.66146 -0.66146 h 1.35122 1.35123 l -0.14452,-0.3766 -0.14451,-0.3766 0.71152,-0.2326 0.71152,-0.23261 4.36562,0.30389 4.36563,0.30389 -0.33073,0.0407 -0.33073,0.0407 v 0.26459 0.26458 h 5.95313 5.95312 v 0.66146 0.66146 h 0.66146 0.66146 v 0.66145 0.66146 h 0.66146 0.66145 v 0.66146 0.66146 h 0.66146 0.66146 v 0.66146 0.66146 h 0.66146 0.66146 v 0.66145 0.66146 h 0.66146 0.66145 v 0.66146 0.66146 h 1.19063 1.19062 v -2.64583 -2.64584 h 0.66146 0.66146 v -1.32291 -1.32292 h 1.32292 1.32291 v 0.66146 0.66146 h 1.98438 1.98437 v 0.66145 0.66146 h 2.64584 2.64583 v 0.66146 0.66146 h 1.32292 1.32291 v 3.30729 3.30729 h -0.66145 -0.66146 v 1.98438 1.98437 h -0.66146 -0.66146 v 1.98438 1.98437 h -0.66146 -0.66146 v 1.85209 1.85208 h -0.66145 -0.66146 v 1.98438 1.98437 h -0.66146 -0.66146 v 1.98438 1.98437 h -0.66146 -0.66146 v 1.98438 1.98437 h -0.66145 -0.66146 v 1.32292 1.32291 h -0.66146 -0.66146 v 0.66146 0.66146 h -1.32292 -1.32291 v 0.66146 0.66146 h -0.66146 -0.66146 v 0.66146 0.66145 h -0.66146 -0.66146 v 0.66146 0.66146 h -1.19062 -1.19063 v 0.66146 0.66146 h -0.66145 -0.66146 v 0.66146 0.66145 h -1.32292 -1.32292 v 0.66146 0.66146 h -9.92187 -9.92188 z m 3.96875,0 v -4.63021 h -0.66145 -0.66146 v 4.63021 4.63021 h 0.66146 0.66145 z m 15.875,3.96875 v -0.66146 h 0.66146 0.66146 v -0.66146 -0.66146 h 0.66146 0.66146 v -0.66145 -0.66146 h 1.32291 1.32292 v -0.66146 -0.66146 h -0.66146 -0.66146 v -1.32292 -1.32291 h -0.66145 -0.66146 v -0.66146 -0.66146 h -0.66146 -0.66146 v -0.66146 -0.66146 h -0.66146 -0.66146 v -1.32291 -1.32292 h 1.32292 1.32292 v -1.32292 -1.32291 h -0.66146 -0.66146 v -0.66146 -0.66146 h -0.66146 -0.66146 v -0.66146 -0.66146 h -1.32291 -1.32292 v -0.66145 -0.66146 h -0.66146 -0.66146 v -0.66146 -0.66146 h -0.66145 -0.66146 v -0.66146 -0.66146 h -0.66146 -0.66146 v -0.66145 -0.66146 h -1.32292 -1.32291 v -0.52917 -0.52917 h -0.66146 -0.66146 v -0.66146 -0.66145 h -7.27604 -7.27604 v 0.66145 0.66146 h -1.32292 -1.32292 v 0.52917 0.52917 h -1.98437 -1.98438 v 0.66146 0.66145 h -1.32291 -1.32292 v 0.66146 0.66146 h -1.98437 -1.98438 v 0.66146 0.66146 h -1.32292 -1.32291 v 1.32291 1.32292 h 0.66146 0.66145 v 0.66146 0.66146 h 0.66146 0.66146 v 0.66146 0.66145 h 0.66146 0.66146 v 0.66146 0.66146 h 0.66146 0.66145 v 0.66146 0.66146 h 0.66146 0.66146 v 0.66146 0.66145 h 1.98438 1.98437 v -0.66145 -0.66146 h 1.32292 1.32291 v -0.66146 -0.66146 h 0.66146 0.66146 v -0.66146 -0.66146 h 1.32292 1.32291 v -0.66145 -0.66146 h 5.29167 5.29167 v 0.66146 0.66145 h 1.32291 1.32292 v 0.66146 0.66146 h 0.66146 0.66146 v 0.66146 0.66146 h 1.32291 1.32292 v 1.32291 1.32292 h -3.30729 -3.30729 v 4.63021 4.63021 h 6.61458 6.61458 z m 8.99584,-6.61458 v -0.66146 h 0.66146 0.66145 v -0.66146 -0.66146 h 0.66146 0.66146 v -1.98437 -1.98438 h 0.66146 0.66146 v -0.66146 -0.66146 h -1.32292 -1.32292 v 0.66146 0.66146 h -1.32291 -1.32292 v 3.30729 3.30729 h 0.66146 0.66146 z m -3.70417,-3.96875 v -0.66146 h -0.66146 -0.66146 v 0.66146 0.66145 h 0.66146 0.66146 z m 3.70417,-5.29167 v -0.66146 h -0.66146 -0.66146 v 0.66146 0.66146 h 0.66146 0.66146 z m -3.70417,-1.98438 v -1.32291 h 3.83646 3.83646 v 0.66146 0.66145 h 0.66146 0.66145 v -1.32291 -1.32292 h 0.66146 0.66146 v -1.85208 -1.85209 h 0.66146 0.66146 v -2.64583 -2.64583 h 0.66146 0.66145 v -1.98438 -1.98437 h -1.98437 -1.98438 v -0.66146 -0.66146 h -3.30729 -3.30729 v 1.98437 1.98438 h -0.66146 -0.66146 v 0.66146 0.66146 h -0.52916 -0.52917 v -0.66146 -0.66146 h -0.66146 -0.66146 v -0.66146 -0.66146 h -0.66145 -0.66146 v -0.66146 -0.66145 h -0.66146 -0.66146 v -0.66146 -0.66146 h -0.66146 -0.66146 v -0.66146 -0.66146 h -0.66145 -0.66146 v -0.66146 -0.66145 h -0.66146 -0.66146 v -0.66146 -0.66146 h -0.66146 -0.66146 v -0.66146 -0.66146 h -5.95312 -5.95313 v -0.66146 -0.66145 h -3.30729 -3.30729 v 0.66145 0.66146 h -1.32292 -1.32291 v 0.66146 0.66146 h -1.98438 -1.98437 v 0.66146 0.66146 h -1.32292 -1.32292 v 0.66145 0.66146 h -1.32291 -1.32292 v 0.66146 0.66146 h -1.32292 -1.32291 v 0.66146 0.66146 h -1.32292 -1.32292 v 0.66145 0.66146 h -1.32291 -1.32292 v 3.30729 3.3073 h -0.66146 -0.66146 v 2.51354 2.51354 h 0.66146 0.66146 v -0.66146 -0.66146 h 1.98438 1.98437 v -0.66145 -0.66146 h 1.98438 1.98437 v -0.52917 -0.52917 h 1.32292 1.32291 v -0.66146 -0.66145 h 1.98438 1.98437 v -0.66146 -0.66146 h 1.32292 1.32292 v -0.66146 -0.66146 h 7.9375 7.9375 v 0.66146 0.66146 h 0.66146 0.66145 v 0.66146 0.66146 h 0.66146 0.66146 v 0.66145 0.66146 h 1.32292 1.32291 v 0.52917 0.52917 h 0.66146 0.66146 v 0.66146 0.66145 h 0.66146 0.66146 v 0.66146 0.66146 h 0.66146 0.66145 v 0.66146 0.66146 h 1.32292 1.32292 v 0.66146 0.66145 h 0.66146 0.66145 v 0.66146 0.66146 h 0.66146 0.66146 z m 14.2875,-18.91771 v -0.66145 h -2.64583 -2.64584 v -0.66146 -0.66146 h -1.98437 -1.98438 v 0.66146 0.66146 h 1.98438 1.98437 v 0.66145 0.66146 h 2.64584 2.64583 z"
       id="path101" /></g></svg>
