<svg width="36" height="36" viewBox="0 0 36 36" fill="none" xmlns="http://www.w3.org/2000/svg">
<path d="M4.41748 9.17582L8.83506 3.28571H26.5054L30.923 9.17582M4.41748 9.17582V29.7912C4.41748 30.5723 4.72776 31.3214 5.28007 31.8737C5.83237 32.426 6.58146 32.7363 7.36254 32.7363H27.9779C28.759 32.7363 29.5081 32.426 30.0604 31.8737C30.6127 31.3214 30.923 30.5723 30.923 29.7912V9.17582M4.41748 9.17582H30.923M23.5603 15.0659C23.5603 16.6281 22.9398 18.1263 21.8352 19.2309C20.7306 20.3355 19.2324 20.956 17.6702 20.956C16.1081 20.956 14.6099 20.3355 13.5053 19.2309C12.4007 18.1263 11.7801 16.6281 11.7801 15.0659" stroke="#1E1E1E" stroke-width="2.94506" stroke-linecap="round" stroke-linejoin="round"/>
</svg>
