<?xml version="1.0" encoding="UTF-8" standalone="no"?>
<!-- Created with Inkscape (http://www.inkscape.org/) -->

<svg
   width="83.682571mm"
   height="85.857277mm"
   viewBox="0 0 83.682571 85.857277"
   version="1.1"
   id="svg1"
   xml:space="preserve"
   xmlns="http://www.w3.org/2000/svg"
   xmlns:svg="http://www.w3.org/2000/svg"><defs
     id="defs1" /><g
     id="layer1"
     transform="translate(-42.399266,-155.00491)"><path
       style="fill:#000000"
       d="m 85.601549,239.01011 v -1.85208 h 0.66145 0.66146 v -1.32292 -1.32292 h 0.66146 0.66146 v -1.32291 -1.32292 h 0.66146 0.66146 v -1.19062 -1.19063 h 0.66145 0.66146 v -1.32291 -1.32292 h 0.66146 0.66146 v -1.32292 -1.32291 H 71.975504 51.734884 v -1.32292 -1.32292 h 0.66146 0.66146 v -0.66146 -0.66145 h 0.52916 0.52917 v -1.32292 -1.32292 h 0.66146 0.66146 v -1.32291 -1.32292 h 0.66145 0.66146 v -1.98438 -1.98437 h -0.66146 -0.66145 v -1.19063 -1.19062 h -0.66146 -0.66146 v 0.52917 0.52916 h -1.85208 -1.85209 v 0.66146 0.66146 h -0.66145 -0.66146 v 0.66146 0.66146 h -1.32292 -1.32292 v 1.32291 1.32292 h -0.66145 -0.66146 v 4.63021 4.63021 h 0.66146 0.66145 v 1.98437 1.98438 h 0.66146 0.66146 v 1.85208 1.85208 h 0.66146 0.66146 v 0.66146 0.66146 h 0.66146 0.66145 v 0.66145 0.66146 h 3.175 3.175 v -0.66146 -0.66145 h 9.12813 9.12812 v -0.66146 -0.66146 h 1.32292 1.32292 v -1.19062 -1.19063 h 0.66145 0.66146 v 1.85209 1.85208 h -0.66146 -0.66145 v 0.66145 0.66146 h -1.32292 -1.32292 v 0.66146 0.66146 h -9.78958 -9.78958 v 0.66146 0.66146 h -2.51355 -2.51354 v -0.66146 -0.66146 h -0.66145 -0.66146 v -0.66146 -0.66146 h -0.66146 -0.66146 v -0.66146 -0.66145 h -0.66146 -0.66146 v -1.32292 -1.32291 h -0.66145 -0.66146 v -1.19063 -1.19062 h -0.66146 -0.66146 v -2.64584 -2.64583 h -0.36602 -0.36601 l -0.15917,-0.59531 -0.15918,-0.59532 -0.17387,-2.42676 -0.17387,-2.42676 0.35676,-1.60814 0.35676,-1.60813 h 0.3423 0.3423 v -0.66146 -0.66145 h 0.66146 0.66146 v -0.66146 -0.66146 h 0.66146 0.66145 v -0.66146 -0.66146 h 1.32292 1.32292 v -0.52916 -0.52917 h 1.32291 1.32292 v -0.66146 -0.66146 h 1.19062 1.19063 v -3.30729 -3.30729 h -0.52917 -0.52916 v -7.14375 -7.14375 h 0.52916 0.52917 v -3.96875 -3.96875 h 0.66146 0.66146 v -2.64583 -2.64584 h 0.66145 0.66146 v -2.64583 -2.64583 h -0.66146 -0.66145 v -1.19063 -1.19062 h -0.66146 -0.66146 v -0.66146 -0.66146 h -0.52917 -0.52916 v -1.32292 -1.32291 h -0.66146 -0.66146 v -0.66146 -0.66146 h 22.75417 22.754155 v -0.66146 -0.66146 h 0.66146 0.66146 v -0.66145 -0.66146 h 1.32291 1.322921 v -0.66146 -0.66146 h 1.98438 1.98437 v -0.24253 -0.24254 l -0.33073,-0.1196 -0.33073,-0.1196 1.32292,-0.23318 1.32292,-0.23317 h 3.70416 3.70417 l 1.5875,0.24316 1.5875,0.24317 -0.46302,0.10696 -0.46302,0.10696 v 0.24519 0.24518 h 1.98437 1.98438 v 0.66146 0.66146 h 1.32291 1.32292 v 0.66146 0.66145 h 0.66146 0.66146 v 1.32292 1.32292 h 0.24253 0.24254 l 0.11704,-0.33073 0.11705,-0.33073 0.3004,1.05833 0.3004,1.05834 10e-4,1.9052 0.001,1.90521 -0.28319,1.32049 -0.2832,1.32049 -0.37826,-0.14515 -0.37826,-0.14515 v 1.35122 1.35123 h -0.66146 -0.66146 v 3.96875 3.96875 h -0.66146 -0.66146 v 4.49791 4.49792 h -0.66145 -0.66146 v 0.66146 0.66146 h -0.66146 -0.66146 v 1.32291 1.32292 h -0.66146 -0.66146 v 1.32292 1.32291 h -0.66145 -0.66146 v 0.66146 0.66146 h -0.66146 -0.66146 v 1.32292 1.32291 h -0.52917 -0.52916 v 0.66146 0.66146 h -0.66146 -0.66146 v 1.32292 1.32291 h -0.66146 -0.66146 v 0.66146 0.66146 h -0.66145 -0.66146 v 1.32292 1.32291 h -0.66146 -0.66146 v 0.66146 0.66146 h -0.66146 -0.66146 v 1.19062 1.19063 h -0.66145 -0.66146 v 0.66146 0.66146 h -0.66146 -0.66146 v 1.32291 1.32292 h -0.66146 -0.66146 v 0.66146 0.66146 h -0.66145 -0.66146 v 1.32291 1.32292 h -0.66146 -0.66146 v 0.66146 0.66146 h -0.66146 -0.661461 v 0.66145 0.66146 h 0.661461 0.66146 v 1.32292 1.32292 h -1.984371 -1.98438 v 1.32291 1.32292 h -0.66146 -0.66146 v 0.66146 0.66146 h -0.66145 -0.66146 v 1.19062 1.19063 h -0.52917 -0.52917 v 0.66145 0.66146 h -0.66145 -0.66146 v 1.32292 1.32291 h -0.66146 -0.66146 v 0.66146 0.66146 h -0.66146 -0.66145 v 1.32292 1.32291 h -0.66146 -0.66146 v 0.66146 0.66146 h -0.66146 -0.66146 v 0.52917 0.52916 h -0.66146 -0.66145 z m 7.93749,-16.80104 v -0.66146 h 0.52917 0.52917 v -1.32291 -1.32292 h 0.66146 0.66145 v -1.32292 -1.32291 h -0.66145 -0.66146 v -0.66146 -0.66146 H 76.341134 58.084884 v 1.32292 1.32291 h -0.66146 -0.66146 v 1.32292 1.32292 h -0.66146 -0.66145 v 0.66145 0.66146 h 17.06562 17.065625 v 0.66146 0.66146 h 1.98437 1.98437 z m 6.35,-5.29167 v -0.66145 h 0.661461 0.66146 v -1.32292 -1.32292 h 0.66146 0.66146 v -0.66146 -0.66145 h 0.66146 0.66145 v -1.32292 -1.32292 h 0.66146 0.66146 v -0.52916 -0.52917 h 0.66146 0.66146 v -1.32292 -1.32291 h 0.66146 0.66145 v -0.66146 -0.66146 h 0.66146 0.66146 v -1.32292 -1.32291 h 0.66146 0.66146 v -0.66146 -0.66146 h 0.66146 0.66145 v -1.32292 -1.32291 h 0.66146 0.66146 v -0.66146 -0.66146 h -0.66146 -0.66146 v -0.66146 -0.66146 h -0.66145 -0.66146 v 0.66146 0.66146 h -0.66146 -0.66146 v 1.32292 1.32291 h -0.66146 -0.66146 v 1.32292 1.32292 h -0.66145 -0.66146 v 1.32291 1.32292 h -0.66146 -0.66146 v 1.32292 1.32291 h -0.66146 -0.66146 v 0.66146 0.66146 h -0.66145 -0.66146 v 1.19062 1.19063 h -0.66146 -0.66146 v 1.32292 1.32291 h -0.66146 -0.661461 v 1.32292 1.32292 h -0.66145 -0.66146 v 0.66145 0.66146 h 0.66146 0.66145 z m -1.32291,-4.6302 v -1.32292 h 0.66146 0.66145 v -1.19063 -1.19062 h 0.661461 0.66146 v -1.32292 -1.32291 h 0.66146 0.66146 v -1.32292 -1.32292 h 0.66146 0.66145 v -1.32291 -1.32292 h 0.66146 0.66146 v -1.32292 -1.32291 h 0.66146 0.66146 v -1.32292 -1.32292 h 0.66146 0.66145 v -0.66146 -0.66145 h 0.66146 0.66146 v -1.32292 -1.32292 h 0.66146 0.66146 v -1.32291 -1.32292 h 0.66146 0.66145 v -1.19063 -1.19062 h 0.66146 0.66146 v -1.32292 -1.32291 h 0.66146 0.66146 v -0.66146 -0.66146 h 0.52916 0.52917 v -0.66146 -0.66146 h 0.66146 0.66146 v -1.32291 -1.32292 h 0.66146 0.66145 v -1.98437 -1.98438 h 0.66146 0.66146 v -1.32292 -1.32291 h 0.66146 0.66146 v -0.66146 -0.66146 h 0.66146 0.66145 v -0.66146 -0.66146 h 0.66146 0.66146 v -3.83645 -3.83646 h -0.66146 -0.66146 v -0.66146 -0.66146 h -0.66145 -0.66146 v -0.66146 -0.66146 h -1.32292 -1.32292 v -0.66145 -0.66146 h -7.14375 -7.14375 v 0.66146 0.66145 h -1.32291 -1.32292 v 2.64584 2.64583 h -0.66146 -0.661461 v 0.66146 0.66146 h -0.66145 -0.66146 v 1.19062 1.19063 h -0.66146 -0.66146 v 3.30729 3.30729 h 0.66146 0.66146 v 2.64583 2.64584 h 0.66146 0.66145 v 4.49791 4.49792 h 0.661461 0.66146 v 5.29167 5.29166 h -0.66146 -0.661461 v 3.96875 3.96875 h -0.66145 -0.66146 v 1.85209 1.85208 h -0.66146 -0.66146 v 1.32292 1.32291 h 0.66146 0.66146 z m -25.929165,-0.66146 v -0.66146 h 1.19063 1.19062 v -0.66146 -0.66146 h 1.98438 1.98437 v -0.52916 -0.52917 h 1.32292 1.32292 v -0.66146 -0.66146 h 1.98437 1.984375 v -0.66146 -0.66145 h 1.32291 1.32292 v -0.66146 -0.66146 h 1.98437 1.98438 v -0.66146 -0.66146 h 1.85208 1.85208 v -0.66146 -0.66145 h 1.32292 1.32292 v -4.63021 -4.63021 h -0.66146 -0.66146 v 0.66146 0.66146 h -1.85208 -1.85209 v 0.66145 0.66146 h -1.98437 -1.98437 v 0.66146 0.66146 h -1.32292 -1.32292 v 0.66146 0.66146 h -1.98437 -1.984375 v 0.66145 0.66146 h -1.98437 -1.98438 v 0.66146 0.66146 h -1.98437 -1.98438 v 0.66146 0.66146 h -1.85208 -1.85208 v 0.66145 0.66146 h -1.32292 -1.32292 v 0.66146 0.66146 h -1.98437 -1.98438 v 0.66146 0.66146 h -1.98437 -1.98438 v 0.66145 0.66146 h -1.98437 -1.98438 v 0.66146 0.66146 h 0.66146 0.66146 v 1.85208 1.85209 h 7.27604 7.27604 z m 23.283325,-1.19063 v -1.85208 h 0.66146 0.66146 v -1.98438 -1.98437 h -1.32292 -1.32291 v 0.66146 0.66146 h -1.85209 -1.85208 v 0.66145 0.66146 h -1.32291 -1.32292 v 0.66146 0.66146 h -1.98438 -1.984365 v 0.52917 0.52916 h -1.32292 -1.32291 v 0.66146 0.66146 h -1.98438 -1.98437 v 0.66146 0.66146 h 9.128115 9.12812 z m -37.835405,-5.15937 v -0.66146 h 1.98437 1.98438 v -0.66146 -0.66146 h 1.32292 1.32291 v -0.66146 -0.66145 h 1.98438 1.98437 v -0.66146 -0.66146 h 1.98438 1.98437 v -0.66146 -0.66146 h 1.19063 1.19062 v -0.66146 -0.66145 h 1.98438 1.98437 v -0.66146 -0.66146 h 1.98438 1.98437 v -0.66146 -0.66146 h 1.984375 1.98437 v -0.66146 -0.66145 h 1.98438 1.98437 v -0.66146 -0.66146 h 1.32292 1.32291 v -0.66146 -0.66146 h 1.85209 1.85208 v -0.66146 -0.66145 h 0.66146 0.66146 v -1.85209 -1.85208 h -0.66146 -0.66146 v -2.64583 -2.64584 h -0.66146 -0.66146 v 0.66146 0.66146 h -1.85208 -1.85208 v 0.66146 0.66146 h -1.98438 -1.98437 v 0.66145 0.66146 h -1.32292 -1.32291 v 0.66146 0.66146 h -1.984375 -1.98437 v 0.52917 0.52916 h -1.98438 -1.98437 v 0.66146 0.66146 h -1.85209 -1.85208 v 0.66146 0.66146 h -1.98438 -1.98437 v 0.66145 0.66146 h -1.32292 -1.32291 v 0.66146 0.66146 h -1.98438 -1.98437 v 0.66146 0.66146 h -1.98438 -1.98437 v 0.66145 0.66146 h -1.32292 -1.32292 v 0.66146 0.66146 h -0.66146 -0.66145 v 3.30729 3.30729 h 0.66145 0.66146 v 1.32292 1.32292 h 0.66146 0.66146 z m -1.32292,-11.90625 v -0.66146 h 1.98438 1.98437 v -0.66146 -0.66146 h 1.32292 1.32292 v -0.66146 -0.66145 h 1.98437 1.98438 v -0.66146 -0.66146 h 1.98437 1.98438 v -0.66146 -0.66146 h 1.85208 1.85208 v -0.52916 -0.52917 h 1.98438 1.98437 v -0.66146 -0.66146 h 1.98438 1.98437 v -0.66146 -0.66145 h 1.32292 1.322915 v -0.66146 -0.66146 h 1.98437 1.98438 v -0.66146 -0.66146 h 1.98437 1.98437 v -0.66145 -0.66146 h 1.19063 1.19062 v -3.30729 -3.3073 h -0.66145 -0.66146 v -0.66145 -0.66146 h -1.19063 -1.19062 v 0.66146 0.66145 h -1.98438 -1.98437 v 0.66146 0.66146 h -1.98438 -1.984365 v 0.66146 0.66146 h -1.98438 -1.98437 v 0.66146 0.66145 h -1.98438 -1.98437 v 0.66146 0.66146 h -1.85208 -1.85209 v 0.66146 0.66146 h -1.98437 -1.98438 v 0.66146 0.66145 h -1.98437 -1.98438 v 0.66146 0.66146 h -1.98437 -1.98438 v 0.66146 0.66146 h -1.98437 -1.98438 v 0.66145 0.66146 h -0.66146 -0.66145 v 4.49792 4.49792 h 0.66145 0.66146 z m 58.737496,-2.64584 v -0.66145 h -0.52917 -0.52916 v 0.66145 0.66146 h 0.52916 0.52917 z m 1.32292,-2.64583 v -0.66146 h -0.66146 -0.66146 v 0.66146 0.66146 h 0.66146 0.66146 z m 1.32291,-2.38125 v -0.66146 h -0.66145 -0.66146 v 0.66146 0.66146 h 0.66146 0.66145 z m -60.060406,-3.96875 v -0.66146 h 1.98437 1.98438 v -0.66145 -0.66146 h 1.98437 1.98438 v -0.66146 -0.66146 h 1.98437 1.98438 v -0.66146 -0.66146 h 1.98437 1.98438 v -0.66145 -0.66146 h 1.85208 1.85209 v -0.66146 -0.66146 h 1.98437 1.98438 v -0.66146 -0.66146 h 1.98437 1.984375 v -0.66145 -0.66146 h 1.32291 1.32292 v -0.66146 -0.66146 H 73.827594 59.407804 v 1.32292 1.32291 h -0.66146 -0.66146 v 2.64584 2.64583 h -0.66146 -0.66146 v 1.98438 1.98437 h 0.66146 0.66146 z m 62.706246,-3.30729 v -1.32292 h 0.66146 0.66145 v -1.32291 -1.32292 h -0.66145 -0.66146 v 1.32292 1.32291 h -0.66146 -0.66146 v 1.32292 1.32292 h 0.66146 0.66146 z m -26.193751,-9.92187 v -0.66146 h 0.66146 0.66145 v -1.19063 -1.19062 h 0.66146 0.66146 v -0.66146 -0.66146 h 0.66146 0.66146 v -0.66146 -0.66146 H 77.002594 55.439054 v 0.66146 0.66146 h 0.66145 0.66146 v 1.19063 1.19062 h 0.66146 0.66146 v 0.66146 0.66146 h 0.66146 0.66146 v 0.66146 0.66145 h 17.59479 17.594785 z"
       id="path43" /></g></svg>
