<svg width="36" height="36" viewBox="0 0 36 36" fill="none" xmlns="http://www.w3.org/2000/svg">
<g clip-path="url(#clip0_71_2473)">
<path d="M23.5606 23.5605V4.4176H1.47266V23.5605H23.5606ZM23.5606 23.5605H33.8683V16.1978L29.4507 11.7802H23.5606V23.5605ZM11.7803 27.2418C11.7803 29.2749 10.1322 30.9231 8.09903 30.9231C6.06589 30.9231 4.41771 29.2749 4.41771 27.2418C4.41771 25.2086 6.06589 23.5605 8.09903 23.5605C10.1322 23.5605 11.7803 25.2086 11.7803 27.2418ZM30.9232 27.2418C30.9232 29.2749 29.275 30.9231 27.2419 30.9231C25.2088 30.9231 23.5606 29.2749 23.5606 27.2418C23.5606 25.2086 25.2088 23.5605 27.2419 23.5605C29.275 23.5605 30.9232 25.2086 30.9232 27.2418Z" stroke="#1E1E1E" stroke-width="2.94506" stroke-linecap="round" stroke-linejoin="round"/>
</g>
<defs>
<clipPath id="clip0_71_2473">
<rect width="35.3407" height="35.3407" fill="white"/>
</clipPath>
</defs>
</svg>
